<svg width="188" height="54" viewBox="0 0 188 54" fill="none" xmlns="http://www.w3.org/2000/svg">
<g id="Vector">
<path d="M101.448 17.7238C100.433 18.6582 99.038 19.1388 97.2257 19.1388H94.4557V24.9159H92.006V9.31679H97.5228C99.335 9.31679 100.71 9.79404 101.608 10.7319C102.526 11.6697 102.983 12.8244 102.983 14.1594C102.983 15.5745 102.465 16.7693 101.448 17.7238ZM94.4557 11.5896V16.8894H97.3058C99.4785 16.8894 100.493 15.6546 100.493 14.2195C100.493 13.5019 100.253 12.8845 99.7555 12.3672C99.2783 11.8499 98.4606 11.5896 97.3058 11.5896H94.4557Z" fill="#FF173D"/>
<path d="M106.924 20.2902C106.944 21.0878 107.261 21.7453 107.879 22.2826C108.496 22.7999 109.214 23.0603 110.031 23.0603C111.366 23.0603 112.321 22.5029 112.902 21.4082L114.614 22.543C113.716 24.195 111.984 25.1128 110.071 25.1128C108.496 25.1128 107.165 24.5955 106.087 23.5375C105.032 22.4829 104.495 21.1479 104.495 19.5727C104.495 17.9974 105.012 16.7425 106.03 15.6679C107.044 14.5932 108.319 14.0559 109.855 14.0559C111.467 14.0559 112.741 14.5532 113.659 15.5711C114.577 16.5857 115.034 17.9006 115.034 19.556C115.034 19.8764 115.014 20.1133 114.994 20.2935H106.928L106.924 20.2902ZM112.621 18.498C112.541 17.0028 111.366 16.0884 109.851 16.0884C108.336 16.0884 107.261 17.0462 107.041 18.498H112.621Z" fill="#FF173D"/>
<path d="M122.924 16.6658C122.724 16.6257 122.507 16.6057 122.246 16.6057C120.434 16.6057 119.476 17.6603 119.476 19.5126V24.9092H117.107V14.2728H119.416V15.9649C120.074 14.7701 121.048 14.1727 122.343 14.1727C122.603 14.1727 122.78 14.1927 122.921 14.2328V16.6624L122.924 16.6658Z" fill="#FF173D"/>
<path d="M123.982 22.4228L125.834 21.3882C126.411 22.5229 127.249 23.1003 128.384 23.1003C129.282 23.1003 130.056 22.6431 130.056 21.9255C130.056 21.3081 129.318 20.8309 127.863 20.5305C126.689 20.2902 125.791 19.873 125.213 19.2556C124.716 18.7183 124.456 18.0808 124.456 17.3232C124.456 16.3654 124.833 15.5911 125.611 14.9737C126.388 14.3563 127.283 14.0559 128.32 14.0559C130.233 14.0559 131.568 14.8535 132.305 16.4455L130.473 17.4801C129.996 16.5256 129.258 16.045 128.24 16.045C127.503 16.045 126.745 16.5022 126.745 17.0796C126.745 17.7771 127.343 18.1342 128.718 18.4346C131.127 18.9719 132.402 20.1267 132.402 21.782C132.402 22.7566 132.025 23.5542 131.287 24.1716C130.55 24.789 129.575 25.0894 128.381 25.0894C126.268 25.0894 124.796 24.1917 123.979 22.4195L123.982 22.4228Z" fill="#FF173D"/>
<path d="M143.783 15.6312C144.877 16.6858 145.415 17.9807 145.415 19.536C145.415 21.0912 144.877 22.4228 143.783 23.5008C142.708 24.5554 141.393 25.0928 139.818 25.0928C138.243 25.0928 136.931 24.5554 135.833 23.5008C134.738 22.4462 134.201 21.1312 134.201 19.576C134.201 18.0208 134.758 16.7058 135.853 15.6512C136.948 14.5966 138.283 14.0592 139.838 14.0592C141.393 14.0592 142.688 14.5765 143.783 15.6345V15.6312ZM136.631 19.536C136.631 20.4738 136.931 21.2681 137.528 21.9456C138.126 22.603 138.903 22.9435 139.838 22.9435C140.772 22.9435 141.55 22.6231 142.127 21.9656C142.705 21.3081 143.005 20.5105 143.005 19.576C143.005 18.6415 142.705 17.8439 142.107 17.1864C141.53 16.5289 140.752 16.2119 139.818 16.2119C138.883 16.2119 138.106 16.5323 137.508 17.1864C136.931 17.8239 136.631 18.6015 136.631 19.536Z" fill="#FF173D"/>
<path d="M155.06 24.9125V18.9552C155.06 17.3633 154.282 16.3053 152.71 16.3053C151.138 16.3053 150.261 17.38 150.261 18.9953V24.9125H147.891V14.2762H150.201V15.7113C151.018 14.6166 152.093 14.0592 153.448 14.0592C156.058 14.0592 157.433 15.8114 157.433 18.3612V24.9159H155.063L155.06 24.9125Z" fill="#FF173D"/>
<path d="M167.669 24.9125V18.9552C167.669 17.3633 166.891 16.3053 165.319 16.3053C163.747 16.3053 162.87 17.38 162.87 18.9953V24.9125H160.5V14.2762H162.809V15.7113C163.627 14.6166 164.702 14.0592 166.057 14.0592C168.667 14.0592 170.042 15.8114 170.042 18.3612V24.9159H167.672L167.669 24.9125Z" fill="#FF173D"/>
<path d="M174.821 20.2902C174.841 21.0878 175.158 21.7453 175.775 22.2826C176.393 22.7999 177.11 23.0603 177.928 23.0603C179.263 23.0603 180.217 22.5029 180.798 21.4082L182.51 22.543C181.612 24.195 179.88 25.1128 177.968 25.1128C176.393 25.1128 175.061 24.5955 173.983 23.5375C172.928 22.4829 172.391 21.1479 172.391 19.5727C172.391 17.9974 172.908 16.7425 173.926 15.6679C174.941 14.5932 176.216 14.0559 177.751 14.0559C179.363 14.0559 180.638 14.5532 181.556 15.5711C182.473 16.5857 182.931 17.9006 182.931 19.556C182.931 19.8764 182.911 20.1133 182.891 20.2935H174.824L174.821 20.2902ZM180.518 18.498C180.438 17.0028 179.263 16.0884 177.748 16.0884C176.233 16.0884 175.158 17.0462 174.938 18.498H180.518Z" fill="#FF173D"/>
<path d="M185.561 8.69936H187.93V24.9159H185.561V8.69936Z" fill="#FF173D"/>
<path d="M90.7879 42.1236L92.8604 41.049C93.5179 42.721 94.8729 43.6388 96.5649 43.6388C98.1602 43.6388 99.295 42.8011 99.295 41.5095C99.295 40.3748 98.3972 39.7174 96.1678 39.0198C94.4757 38.4825 93.2609 37.8851 92.5033 37.2076C91.7057 36.5101 91.3085 35.5556 91.3085 34.3608C91.3085 33.1059 91.8058 32.0513 92.8037 31.1936C93.8183 30.3158 95.0331 29.8786 96.4882 29.8786C99.1181 29.8786 100.87 31.2536 101.608 33.186L99.5753 34.2807C98.9779 32.8256 97.9233 32.088 96.4281 32.088C94.9329 32.088 93.8183 32.9657 93.8183 34.2206C93.8183 35.3954 94.7928 36.0328 96.7051 36.6102C98.6375 37.1876 99.9725 37.8451 100.71 38.5826C101.448 39.3002 101.825 40.2346 101.825 41.3727C101.825 42.5875 101.347 43.6422 100.39 44.5399C99.4351 45.4377 98.1402 45.8749 96.5249 45.8749C93.7949 45.8749 91.6656 44.5199 90.7879 42.1303V42.1236Z" fill="#FF173D"/>
<path d="M106.09 41.069C106.11 41.8667 106.427 42.5241 107.044 43.0615C107.662 43.5788 108.379 43.8391 109.197 43.8391C110.532 43.8391 111.487 43.2817 112.067 42.1871L113.779 43.3218C112.882 44.9738 111.149 45.8916 109.237 45.8916C107.662 45.8916 106.33 45.3743 105.252 44.3163C104.198 43.2617 103.66 41.9267 103.66 40.3515C103.66 38.7762 104.178 37.5213 105.196 36.4467C106.21 35.372 107.485 34.8347 109.02 34.8347C110.632 34.8347 111.907 35.332 112.825 36.3499C113.743 37.3645 114.2 38.6794 114.2 40.3348C114.2 40.6552 114.18 40.8921 114.16 41.0724H106.093L106.09 41.069ZM111.787 39.2768C111.707 37.7817 110.532 36.8672 109.017 36.8672C107.502 36.8672 106.427 37.825 106.207 39.2768H111.787Z" fill="#FF173D"/>
<path d="M122.547 37.4446C122.347 37.4045 122.13 37.3845 121.869 37.3845C120.057 37.3845 119.099 38.4391 119.099 40.2914V45.688H116.73V35.0516H119.039V36.7437C119.697 35.5489 120.671 34.9515 121.966 34.9515C122.226 34.9515 122.403 34.9715 122.543 35.0116V37.4412L122.547 37.4446Z" fill="#FF173D"/>
<path d="M125.871 35.0517L128.998 42.9213L132.125 35.0517H134.615L130.173 45.688H127.803L123.301 35.0517H125.871Z" fill="#FF173D"/>
<path d="M137.088 30.5094C137.705 29.872 138.663 29.872 139.281 30.5094C139.898 31.1268 139.898 32.0847 139.281 32.7021C138.663 33.3195 137.705 33.3195 137.088 32.7021C136.47 32.0847 136.47 31.1268 137.088 30.5094ZM139.377 45.688H137.008V35.0516H139.377V45.688Z" fill="#FF173D"/>
<path d="M143.422 44.2963C142.368 43.2417 141.83 41.9267 141.83 40.3515C141.83 38.7762 142.368 37.5614 143.422 36.4667C144.477 35.372 145.792 34.8347 147.367 34.8347C149.757 34.8347 151.512 36.1296 152.15 38.0219L150.117 38.9397C149.66 37.6448 148.742 36.9873 147.387 36.9873C146.509 36.9873 145.775 37.3077 145.158 37.9251C144.56 38.5426 144.26 39.3402 144.26 40.3147C144.26 41.2893 144.56 42.127 145.158 42.7644C145.755 43.4019 146.513 43.7222 147.407 43.7222C148.742 43.7222 149.657 43.0648 150.157 41.7498L152.23 42.6676C151.929 43.5253 151.352 44.2829 150.538 44.9204C149.72 45.5578 148.665 45.8782 147.37 45.8782C145.795 45.8782 144.484 45.3609 143.426 44.303L143.422 44.2963Z" fill="#FF173D"/>
<path d="M156.155 41.069C156.175 41.8666 156.492 42.5241 157.109 43.0614C157.727 43.5787 158.444 43.8391 159.262 43.8391C160.597 43.8391 161.551 43.2817 162.132 42.187L163.844 43.3218C162.946 44.9738 161.214 45.8916 159.302 45.8916C157.727 45.8916 156.395 45.3743 155.317 44.3163C154.262 43.2617 153.725 41.9267 153.725 40.3515C153.725 38.7762 154.242 37.5213 155.26 36.4467C156.275 35.372 157.55 34.8347 159.085 34.8347C160.697 34.8347 161.972 35.332 162.889 36.3499C163.807 37.3645 164.265 38.6794 164.265 40.3348C164.265 40.6552 164.245 40.8921 164.224 41.0723H156.158L156.155 41.069ZM161.852 39.2768C161.771 37.7816 160.597 36.8672 159.081 36.8672C157.566 36.8672 156.492 37.825 156.271 39.2768H161.852Z" fill="#FF173D"/>
<path d="M62.8337 19.5678C66.6717 23.4059 68.5807 28.0916 68.5507 33.6217C68.5206 39.1518 66.5682 43.8576 62.6901 47.7357C58.8321 51.5937 54.1363 53.5394 48.6062 53.5661C43.0761 53.5928 38.3904 51.6905 34.5523 47.8491C36.6816 45.6698 60.9947 21.3567 62.8337 19.5678Z" fill="#FF173D"/>
<path d="M43.3765 34.9166C39.5384 31.0786 37.6328 26.3929 37.6595 20.8628C37.6895 15.3326 39.6419 10.6269 43.52 6.74879C47.378 2.89073 52.0738 0.948355 57.6039 0.918318C63.134 0.888282 67.8198 2.79395 71.6611 6.63532C69.5319 8.81466 45.2187 33.1278 43.3798 34.9166" fill="#FF173D"/>
<path d="M13.0426 0.991746C18.4726 0.991746 23.1317 2.95749 27.0231 6.88897C30.9112 10.8205 32.8569 15.5262 32.8569 21.0129C32.8569 26.4997 30.9112 31.1654 27.0231 35.0935C23.1317 39.025 18.4726 40.9907 13.0426 40.9907C13.0093 37.9437 13.0093 3.55822 13.0426 0.995084" fill="#FF173D"/>
<path d="M10.4495 53.673C7.58596 53.673 5.12628 52.635 3.0771 50.5625C1.02459 48.4899 0 46.0069 0 43.1133C0 40.2198 1.02459 37.7601 3.0771 35.6876C5.12962 33.615 7.58596 32.5771 10.4495 32.5771C10.4695 34.1857 10.4695 52.318 10.4495 53.673Z" fill="#FF173D"/>
</g>
</svg>
