<?xml version="1.0" encoding="UTF-8"?>
<svg xmlns="http://www.w3.org/2000/svg" width="120" height="51" viewBox="0 0 120 51" fill="none">
  <g clip-path="url(#clip0_608_16185)">
    <path d="M20.5546 23.1296C20.5546 24.2158 20.3218 25.2136 19.8587 26.1205C19.3957 27.0274 18.6187 27.8122 17.533 28.4722C16.4447 29.1322 15.0033 29.6493 13.2034 30.0287C11.4035 30.4081 9.16154 30.616 6.47482 30.6576C6.44866 30.7407 6.37802 31.5177 6.64225 32.3492C6.77829 32.7754 7.01897 33.16 7.35906 33.503C7.69653 33.8486 8.14388 34.1266 8.69849 34.3397C9.25049 34.5554 9.94375 34.6593 10.7757 34.6593C11.2727 34.6593 11.8169 34.6152 12.4055 34.5242C12.9941 34.4359 13.5932 34.3085 14.2027 34.1344C15.5945 33.7342 17.1799 33.0093 17.69 32.7208L16.6723 37.5853C16.2433 37.8062 15.7515 38.0192 15.1995 38.2245C14.6449 38.4324 14.0458 38.6169 13.4022 38.7832C12.7587 38.9469 12.0732 39.0794 11.346 39.1756C10.6187 39.2717 9.87574 39.3211 9.11445 39.3211C7.50817 39.3211 6.13211 39.0872 4.98365 38.6195C3.83257 38.1518 2.89078 37.5229 2.15042 36.7304C1.41007 35.9404 0.865925 35.0153 0.520602 33.9577C0.172662 32.8975 0 31.7698 0 30.5744C0 28.7736 0.30085 27.0612 0.905167 25.4397C1.50687 23.8182 2.36494 22.3942 3.4794 21.1703C4.59385 19.9464 5.93591 18.9745 7.50817 18.2521C9.08044 17.5297 10.8332 17.1711 12.7717 17.1711C14.1687 17.1711 15.3617 17.3349 16.3427 17.6649C17.3264 17.9949 18.1295 18.4366 18.7521 18.9953C19.3774 19.5514 19.8326 20.188 20.123 20.9026C20.416 21.6172 20.5598 22.3604 20.5598 23.1296H20.5546ZM14.3048 23.2128C14.3048 22.706 14.1164 22.2825 13.7345 21.9447C13.3525 21.6069 12.8162 21.4405 12.1256 21.4405C11.516 21.4405 10.93 21.5705 10.3702 21.8329C9.81033 22.0928 9.29758 22.454 8.83191 22.9165C8.36887 23.3765 7.97122 23.9274 7.63898 24.5666C7.30674 25.2058 7.05821 25.897 6.89078 26.6402C9.38391 26.6662 11.2413 26.3856 12.4657 25.7931C13.69 25.2032 14.3022 24.3431 14.3022 23.2153L14.3048 23.2128Z" fill="#54504C"></path>
    <path d="M48.2766 17.6857H54.4271L45.5428 38.804H37.2498C37.2498 38.804 36.881 24.8291 36.9228 24.499L29.9405 38.804H23.0078L21.5742 17.6857H27.1962L27.8554 33.2405C27.8554 33.2639 27.8868 33.2717 27.8973 33.2509C28.1563 32.6429 34.877 17.6857 34.877 17.6857H41.5821C41.5821 17.6857 42.0006 33.1028 41.9797 33.3159L48.2766 17.6857Z" fill="#54504C"></path>
    <path d="M62.3531 38.6195C62.1045 38.6871 60.6264 39.2172 58.1385 39.2172C57.2098 39.2172 56.4171 39.095 55.7605 38.856C55.1013 38.6169 54.5597 38.2791 54.1307 37.8451C53.699 37.4112 53.3851 36.8967 53.1837 36.299C52.9822 35.6987 52.8828 35.0439 52.8828 34.3293C52.8828 34.0279 52.9011 33.6901 52.9351 33.3185C52.9691 32.9469 53.0136 32.5597 53.0712 32.1543C53.1261 31.749 53.1915 31.3358 53.2674 30.9174C53.3432 30.4965 58.2196 7.71766 58.2589 7.54095H64.9037C64.9037 7.54095 59.9619 30.5874 59.839 31.1851C59.7134 31.7827 59.6506 32.3025 59.6506 32.7416C59.6506 33.2639 59.8181 33.6277 60.1503 33.8356C60.4826 34.0409 60.8619 34.137 61.2935 34.1422C62.2798 34.1552 63.0856 33.8538 63.389 33.7317C63.2111 34.558 63.0359 35.3713 62.871 36.1769C62.7036 36.9824 62.531 37.7958 62.3504 38.6221L62.3531 38.6195Z" fill="#54504C"></path>
    <path fill-rule="evenodd" clip-rule="evenodd" d="M81.033 40.5554L82.9009 38.7001L86.7884 42.5589L84.9179 44.4169C83.8427 45.4901 82.1004 45.4823 81.033 44.4169C79.9525 43.3489 79.9525 41.6182 81.033 40.5554Z" fill="#F6A800"></path>
    <path fill-rule="evenodd" clip-rule="evenodd" d="M75.5779 35.8885L77.8251 33.6563L81.7152 37.5151L79.4732 39.7473C78.4006 40.8153 76.6583 40.8153 75.5779 39.7473C74.5105 38.6793 74.5105 36.9487 75.5779 35.8885Z" fill="#F6A800"></path>
    <path fill-rule="evenodd" clip-rule="evenodd" d="M71.2439 30.1145L72.7534 28.6151L76.6435 32.4791L75.134 33.9733C74.0588 35.0413 72.3217 35.0413 71.2439 33.9733C70.1739 32.9079 70.1739 31.1825 71.2439 30.1145Z" fill="#F6A800"></path>
    <path fill-rule="evenodd" clip-rule="evenodd" d="M119.204 30.4523C114.092 25.38 107.395 18.7745 102.5 13.9204C99.141 10.5761 96.818 12.3899 92.0253 12.421C90.317 12.4314 86.937 11.7428 87.5099 10.8775L98.3222 0.135132C98.3222 0.135132 103.039 0.576884 107.894 3.44308C111.251 5.42576 115.029 8.9234 117.498 13.871C121.851 22.5943 119.201 30.4523 119.201 30.4523H119.204Z" fill="#F6A800"></path>
    <path fill-rule="evenodd" clip-rule="evenodd" d="M86.8621 44.843L87.9765 43.7386L91.8614 47.5975L90.747 48.7045C89.6796 49.7725 87.9347 49.7725 86.8621 48.7045C85.7869 47.6391 85.7947 45.911 86.8621 44.8456V44.843Z" fill="#F6A800"></path>
    <path fill-rule="evenodd" clip-rule="evenodd" d="M99.8915 45.4927L93.1524 38.8014L94.3401 37.6217L103.162 46.384C104.232 47.452 105.969 47.4468 107.041 46.384C108.116 45.3212 108.119 43.5905 107.041 42.5303L98.225 33.7654L99.4127 32.5857L108.982 42.0938C110.058 43.1592 111.795 43.1566 112.87 42.0938C113.94 41.031 113.94 39.3003 112.87 38.2375L103.295 28.7295L104.483 27.5471L113.325 36.3302C114.398 37.3956 116.135 37.3956 117.21 36.3302C118.283 35.2648 118.28 33.5368 117.21 32.474L100.841 16.2565C100.841 16.2565 100.339 15.7342 99.5723 15.1989C98.2041 14.2452 95.7921 15.1391 92.0327 15.2326C88.8987 15.3106 86.0367 14.1049 85.2231 12.9849C83.9124 11.1815 84.9458 9.40932 85.6783 8.68433C86.4108 7.95933 94.4474 0 94.4474 0C81.189 0.420964 70.5651 11.2335 70.5625 24.5042C70.5625 25.7463 70.6567 26.9651 70.8346 28.1552V28.1604L72.7522 26.2557L96.004 49.3489C97.0739 50.4143 98.811 50.4143 99.8889 49.3489C100.959 48.2835 100.959 46.5555 99.8889 45.4901" fill="#EB690B"></path>
    <path fill-rule="evenodd" clip-rule="evenodd" d="M117.497 13.871C115.027 8.9234 111.25 5.42576 107.893 3.44308C103.038 0.576884 98.3209 0.135132 98.3209 0.135132L87.506 10.8775C86.9331 11.7428 90.3131 12.4314 92.0214 12.421C96.8167 12.3925 99.1371 10.5787 102.496 13.9204C105.057 16.4592 108.113 19.4787 111.176 22.506C113.991 21.2613 116.636 19.7022 119.064 17.8702C118.69 16.5761 118.18 15.2327 117.499 13.8684L117.497 13.871Z" fill="#FABB00"></path>
    <path fill-rule="evenodd" clip-rule="evenodd" d="M99.5697 15.1963C98.2015 14.2426 95.7895 15.1365 92.0301 15.2301C88.8961 15.308 86.0341 14.1023 85.2205 12.9823C83.9098 11.1789 84.9431 9.40672 85.6757 8.68173C86.4055 7.95673 94.4448 0 94.4448 0C83.4049 0.350803 74.1936 7.90736 71.418 18.0858C78.0367 22.9893 86.2276 25.8893 95.0962 25.8893C99.7241 25.8893 104.166 25.0967 108.3 23.6441L100.838 16.2513C100.838 16.2513 100.336 15.729 99.5697 15.1937V15.1963Z" fill="#F08A00"></path>
  </g>
  <defs>
    <clipPath id="clip0_608_16185">
      <rect width="120" height="50.1493" fill="white"></rect>
    </clipPath>
  </defs>
</svg>
