<?xml version="1.0" encoding="utf-8"?>
<!-- Generator: Adobe Illustrator 16.0.3, SVG Export Plug-In . SVG Version: 6.00 Build 0)  -->
<!DOCTYPE svg PUBLIC "-//W3C//DTD SVG 1.1//EN" "http://www.w3.org/Graphics/SVG/1.1/DTD/svg11.dtd">
<svg version="1.1" id="Layer_1" xmlns="http://www.w3.org/2000/svg" xmlns:xlink="http://www.w3.org/1999/xlink" x="0px" y="0px"
	 width="380.114px" height="188.231px" viewBox="0 0 380.114 188.231" enable-background="new 0 0 380.114 188.231"
	 xml:space="preserve">
<g>
	<g>
		<path fill="#FFFFFF" d="M303.369,178.832h-4.703l-1.166,5.9h5.392l-0.692,3.499h-9.271l4.068-21.257h8.894l-0.695,3.471h-4.888
			l-1.041,5.078h4.729L303.369,178.832z"/>
		<path fill="#FFFFFF" d="M311.218,188.231l-0.662-21.257h4.351l-0.282,10.756c-0.031,1.923-0.157,4.384-0.282,6.022h0.061
			c0.443-1.639,1.17-4.13,1.832-5.993l3.816-10.785h4.351l-8.894,21.257H311.218z"/>
		<path fill="#FFFFFF" d="M335.853,178.832h-4.699l-1.17,5.9h5.392l-0.692,3.499h-9.271l4.068-21.257h8.894l-0.693,3.471h-4.89
			l-1.041,5.078h4.733L335.853,178.832z"/>
		<path fill="#FFFFFF" d="M340.771,188.231l4.068-21.257h3.597l1.606,8.451c0.568,2.807,0.915,4.827,1.072,6.593h0.064
			c0.253-2.334,0.628-5.993,1.292-9.526l1.07-5.518h3.378l-4.07,21.257h-3.345l-1.703-7.916c-0.661-2.965-0.848-4.416-1.104-7.063
			h-0.06c-0.253,2.143-0.727,5.678-1.421,9.335l-1.073,5.645H340.771z"/>
		<path fill="#FFFFFF" d="M365.055,170.696h-3.722l0.724-3.722h11.325l-0.727,3.722h-3.688l-3.344,17.535h-3.945L365.055,170.696z"
			/>
	</g>
	<path fill="#FFFFFF" d="M48.517,118.568l20.778-29.059l2.844,18.787c4.114,0.043,9.698-1.531,15.467-2.965l-8.399-55.513
		l-65.973,92.267C22.042,132.979,34.068,125.122,48.517,118.568z"/>
	<g>
		<path fill="#FFFFFF" d="M97.224,158.241l4.701-24.863c1.195-6.322,1.709-13.328,2.135-16.917h10.682
			c-0.257,2.819-0.43,5.639-0.77,8.545h0.257c2.989-5.556,7.605-9.484,13.327-9.484c0.77,0,1.539,0,2.307,0.085l-2.39,11.961
			c-0.6-0.087-1.284-0.087-1.964-0.087c-7.86,0-11.537,7.008-13.076,15.21l-2.902,15.551H97.224z"/>
		<path fill="#FFFFFF" d="M126.188,164.049c2.309,1.369,7.35,2.309,10.939,2.309c6.15,0,10.679-2.736,12.472-11.108l0.685-3.587
			h-0.172c-3.247,4.271-7.005,6.233-11.959,6.233c-8.29,0-13.328-6.748-13.416-14.95c-0.083-13.754,9.825-27.425,28.026-27.425
			c5.894,0,11.02,1.109,15.463,2.906l-6.323,34.43c-1.452,7.69-3.846,14.523-8.798,18.54c-4.533,3.589-10.599,4.698-16.15,4.698
			c-5.641,0-10.767-1.024-13.671-2.648L126.188,164.049z M154.896,125.688c-0.939-0.428-2.734-0.768-4.441-0.768
			c-7.437,0-12.731,8.285-12.731,16.146c0,4.273,1.879,7.35,5.639,7.35c4.014,0,8.032-4.53,9.399-11.536L154.896,125.688z"/>
		<path fill="#FFFFFF" d="M200.95,155.848c-4.869,2.479-10.938,3.332-15.638,3.332c-11.874,0-18.025-6.75-18.025-17.685
			c0-12.731,9.225-25.975,24.348-25.975c8.46,0,14.525,4.785,14.525,12.559c0,10.597-10.339,14.44-27.169,14.011
			c0.085,1.197,0.512,3.079,1.365,4.273c1.622,2.137,4.445,3.247,8.032,3.247c4.529,0,8.373-1.025,11.707-2.649L200.95,155.848z
			 M190.098,124.493c-5.726,0-9.06,4.782-9.912,8.628c9.657,0.085,14.44-1.195,14.44-5.126
			C194.626,125.945,192.917,124.493,190.098,124.493z"/>
		<path fill="#FFFFFF" d="M203.599,158.241l5.294-28.194c1.111-5.298,1.711-9.827,2.307-13.586h10.852l-0.768,6.921h0.172
			c3.927-5.382,9.053-7.86,14.606-7.86c6.838,0,10.765,4.187,10.765,11.446c0,1.882-0.34,4.958-0.681,7.006l-4.613,24.268h-12.389
			l4.443-23.155c0.255-1.452,0.425-3.074,0.425-4.614c0-2.991-1.024-5.038-4.186-5.038c-4.017,0-8.715,5.038-10.425,14.266
			l-3.504,18.542H203.599z"/>
		<path fill="#FFFFFF" d="M270.241,105.096l-2.137,11.279h8.971l-1.88,9.397h-8.885l-2.821,14.183
			c-0.34,1.623-0.681,3.847-0.681,5.299c0,2.05,0.853,3.502,3.587,3.502c1.027,0,2.305,0,3.332-0.171l-1.367,9.655
			c-1.625,0.6-4.699,0.939-7.263,0.939c-7.433,0-10.937-3.759-10.937-9.057c0-2.22,0.257-4.529,0.941-7.773l3.161-16.577h-5.298
			l1.707-9.397h5.384l1.539-7.86L270.241,105.096z"/>
		<path fill="#FFFFFF" d="M316.545,116.46l-5.296,28.194c-1.027,5.296-1.709,9.827-2.222,13.586h-10.854l0.773-6.751l-0.172-0.083
			c-4.273,5.467-9.316,7.773-14.355,7.773c-6.748,0-10.767-3.759-10.767-11.706c0-2.22,0.259-4.784,0.854-7.69l4.445-23.323h12.304
			l-4.273,22.386c-0.34,1.965-0.597,4.017-0.597,5.552c0,2.65,1.109,4.785,4.186,4.785c4.187,0,8.456-5.041,10.08-13.326
			l3.674-19.396H316.545z"/>
		<path fill="#FFFFFF" d="M313.982,158.241l5.213-28.194c0.938-5.298,1.624-9.827,2.137-13.586h10.507l-0.768,6.748h0.173
			c3.842-5.381,8.97-7.772,14.351-7.772c6.666,0,9.57,4.271,9.912,7.945c3.759-5.382,8.97-7.945,14.438-7.945
			c6.408,0,10.169,4.184,10.169,11.276c0,1.71-0.345,5.041-0.685,7.178l-4.526,24.351h-11.964l4.187-22.896
			c0.342-1.626,0.6-3.419,0.6-5.045c0-2.902-1.282-4.952-4.102-4.952c-4.104,0-8.202,5.467-9.826,13.925l-3.504,18.969h-11.872
			l4.354-22.983c0.258-1.709,0.515-3.332,0.515-4.786c0-2.904-0.941-5.124-3.933-5.124c-4.187,0-8.626,5.807-10.08,14.097
			l-3.419,18.797H313.982z"/>
		<path fill="#FFFFFF" d="M74.791,122.393l5.329,35.848h15.276l-6.097-40.303C83.526,119.492,78.277,120.902,74.791,122.393z"/>
	</g>
	<path fill="#FFFFFF" d="M216.728,97.056c45.24,0,87.074,6.107,121.087,16.456C304.804,101.238,263.918,92.64,219.3,89.775
		C105.567,82.473-5.992,115.436,2.696,180.946C18.977,122.78,104.837,97.056,216.728,97.056z"/>
	<path fill-rule="evenodd" clip-rule="evenodd" fill="#FFFFFF" d="M103.7,24.104c1.784-0.029,3.242,0.618,3.952,1.682
		c0.249,0.369,0.378,1.087,0.644,1.361c0.358,0.377,1.547,0.543,1.415,1.334c-0.025-0.017-0.054-0.035-0.079-0.052
		c-0.04-0.125-0.073-0.249-0.11-0.374c-0.135,0.042-0.116,0.091-0.105,0.266c0.266,0.896,0.473,1.784,0.96,2.51
		c0.309,0.463,0.801,0.859,1.097,1.338c0.087,0.213,0.176,0.423,0.264,0.641c0.303,0.323,0.817,0.454,1.097,0.798
		c0.015,0.066-0.081,1.388,0.133,1.521c0.05-0.052,0.002-0.014,0.081-0.052c0,0.01,0,0.021,0,0.027
		c-0.131,0.085-0.141,0.193-0.081,0.322c0.027,0,0.056,0,0.081,0c0.027-0.035,0.054-0.07,0.081-0.106
		c0.017,0.006,0.033,0.017,0.052,0.027c0.019,0.043,0.033,0.087,0.054,0.132c-0.043,0.036-0.089,0.071-0.133,0.106
		c-0.06-0.043-0.047-0.048-0.135-0.079c-0.155,0.354-0.46,0.537-0.535,0.96c0.027,0.027,0.056,0.056,0.081,0.079
		c3.033,0.015,3.757,3.093,5.184,4.782c0.485,0.577,1.143,1.052,1.734,1.522c0.381,0.411,0.765,0.822,1.147,1.229
		c0.019-0.008,0.038-0.019,0.054-0.025c0.17-0.206,0.34-0.409,0.508-0.614c0.338-0.774,1.222-4.188,0.774-5.13
		c-0.485-1.022-2.471-1.624-2.429-2.645c0.282-0.455,0.568-0.905,0.854-1.359c0.027-0.17,0.052-0.338,0.079-0.51
		c0.066-0.104,0.566-0.442,0.776-0.372c0.303,0.241,0.604,0.479,0.906,0.72c0.197,0.046,0.39,0.089,0.589,0.135
		c-0.07,0.147-0.143,0.195-0.162,0.398c0.151,0.135,0.354,0.683,0.429,0.855c-0.019,0.126-0.033,0.249-0.052,0.375
		c0.118,0.373,0.886,0.697,1.064,1.174c0.16,0.415-0.209,1.623-0.238,2.218c-0.085,1.879-0.085,4.083-0.56,5.821
		c-0.174,0.629,0.002,1.761-0.292,2.299c-0.336,0.137-0.936,0.531-1.39,0.4c-0.691-0.195-1.373-0.911-1.898-1.336
		c-1.291-1.043-2.728-1.884-3.898-3.043c-0.519-0.57-1.035-1.141-1.552-1.711c-0.141-0.162-0.377-0.542-0.693-0.427
		c-0.019,0-0.035,0-0.054,0c-0.213,0.575-0.292,1.583-0.427,2.215c0.027,0.268,0.056,0.538,0.081,0.805
		c0.1,0.607-0.031,1.201-0.135,1.709c-0.089,0.446-0.579,1.151-0.481,1.656c0.125,0.63,0.483,1.091,0.697,1.628
		c0.388,1.388,0.784,2.778,1.174,4.167c0.141,0.745,0.287,1.498,0.425,2.241c0,0.494,0,0.981,0,1.469
		c0.222,0.483,0.446,0.962,0.67,1.446c0.16,0.666,0.32,1.332,0.479,2.002c0.222,0.444,0.446,0.89,0.67,1.333
		c0.375,0.907,0.815,1.726,1.17,2.566c0.204,0.467,0.241,1.022,0.589,1.336c-0.017,0.025-0.033,0.052-0.052,0.079
		c-0.125,0.063-0.249,0.125-0.372,0.187c-0.216,0.008-0.429,0.017-0.641,0.025c-0.01,0.021-0.017,0.037-0.027,0.054
		c0.025,0.27,0.146,0.292,0.292,0.43c-0.021,0.162-0.1,0.211-0.079,0.319c0.087,0.209,0.228,0.243,0.268,0.508
		c-0.172,0.313-0.465,0.531-0.616,0.881c0.006,1.131,0.017,2.261,0.027,3.392c-0.079,0.782-0.261,2.792-0.081,3.711
		c0.533,2.713,1.255,5.257,1.738,8.041c0.008,0.792,0.017,1.584,0.023,2.377c0.243,2.836-0.403,6.41,0.268,8.813
		c0.313,1.108,1.332,2.077,2.215,2.642c0.658,0.419,1.836,0.419,1.577,1.659c-0.27,0.135-0.458,0.419-0.774,0.506
		c-0.294,0.081-0.514-0.11-0.693-0.133c-0.16,0.052-0.319,0.105-0.481,0.162c-0.195,0-1.571-0.487-1.658-0.563
		c-0.458-0.4-0.766-1.082-1.28-1.417c-0.479-0.309-0.927-0.185-1.149-0.773c0-0.081,0.025-0.038-0.027-0.104
		c-0.048,0.052,0,0.017-0.081,0.05c0.006-0.653,0.145-1.224,0.189-1.628c-0.056-0.249-0.108-0.5-0.162-0.749
		c0.054-0.354,0.106-0.709,0.162-1.068c-0.347-2.653-1.162-4.897-1.709-7.343c-0.17-1.621-0.338-3.241-0.508-4.861
		c-0.185-0.311-0.374-0.622-0.562-0.934c-0.353-0.612-0.716-1.323-0.934-2.033c-0.39-1.27-0.369-2.873-0.639-4.377
		c-0.126-0.605-0.251-1.211-0.375-1.815c-0.097-0.375-0.307-0.635-0.374-1.097c-1.431-0.313-2.767-0.525-4.25-0.081
		c-0.881,0.268-1.853,0.844-2.828,0.909c0-0.008,0-0.017,0-0.025c0.009-0.048,0.017-0.091,0.027-0.133
		c-0.204,0.075-0.407,0.141-0.587,0.185c-0.361,0.915-1.12,1.608-1.576,2.377c-0.792,1.336-1.457,2.838-2.11,4.194
		c-0.16,0.533-0.319,1.066-0.481,1.602c-0.309,0.813-0.728,1.479-1.012,2.456c-0.102,1.085-0.199,2.174-0.294,3.261
		c-0.309,1.379-0.882,2.998-1.204,4.404c-0.288,1.261,0.071,2.348,0.295,3.443c-0.036,0.446-0.073,0.892-0.108,1.336
		c0.102,0.598,0.054,1.374,0.054,2.166c0,1.26,0.035,2.661-0.187,3.657c-0.645,0.044-1.51,0.33-2.299,0.162
		c-0.268-0.059-0.533-0.227-0.825-0.268c-0.486-0.99,0.307-1.778,0.614-2.805c0.106-1.379,0.211-2.759,0.317-4.141
		c0.054-0.604,0.11-1.207,0.162-1.815c-0.407-1.05-0.266-2.467-0.506-3.873c-0.01-0.452-0.019-0.907-0.029-1.361
		c-0.305-1.656-0.614-3.489-0.185-5.263c0.16-0.678,0.538-1.33,0.772-1.896c0.118-0.498,0.232-0.994,0.351-1.496
		c0.236-0.672,0.66-1.28,0.879-2.004c0.073-0.415,0.143-0.836,0.212-1.253c0.251-1.087,0.502-2.172,0.749-3.259
		c0.054-0.255-0.16-0.504-0.105-0.828c0.205-0.357,0.411-0.713,0.614-1.07c0-0.23,0-0.463,0-0.695
		c0.064-0.515,0.126-1.031,0.187-1.548c0.202-0.892,0.508-1.817,0.72-2.643c0.483-1.867,0.763-3.738,1.097-5.581
		c0.054-1.151,0.106-2.301,0.162-3.448c0.228-2.039,0.4-4.84,0.027-7c0.017-0.255,0.033-0.516,0.05-0.773
		c0.01-0.259-0.106-0.784-0.162-1.095c-0.205-1.193,0.525-2.282,0.085-3.257c-0.218-0.284-0.43-0.568-0.639-0.856
		c-0.153-0.208-0.289-0.621-0.564-0.691c-2.68,0.705-5.213,1.46-8.119,2.056c-1.033,0.179-2.064,0.355-3.1,0.533
		c-0.386-0.106-0.734-0.591-1.041-0.587c-0.038-0.257-0.257-0.488-0.187-0.801c0.11-0.477,1.388-1.759,1.736-2.218
		c1.766-2.33,3.894-4.311,5.637-6.651c0.259-0.348,0.307-0.786,0.535-1.174c0.247-0.338,0.496-0.679,0.747-1.015
		c0.129-0.296,0.1-0.483,0.319-0.668c0.077-0.066,0.718-0.469,0.778-0.483c0.164,0.021,0.336,0.038,0.504,0.054
		c0.112-0.033,0.191-0.204,0.427-0.131c0.071,0.06,0.143,0.125,0.214,0.185c0.133-0.025,0.266-0.054,0.4-0.081
		c0.168,0.025,0.216,0.141,0.427,0.162c0.106-0.204,0.382-0.197,0.454-0.402c-0.151-0.411-0.292-1.355-0.508-1.628
		c0.036,0,0.071,0,0.108,0c-0.083-0.224-0.554-0.824-0.294-1.334c0.104-0.197,0.214-0.27,0.268-0.533
		c0.121-0.042,0.355-0.153,0.402-0.27c-0.052-0.036-0.017-0.002-0.058-0.054c-0.093-0.008-0.193-0.015-0.288-0.025
		c0-0.01,0-0.019,0-0.029c0.004-0.033,0.017-0.069,0.023-0.104c0.13-0.164,0.886-0.68,1.259-0.587
		c0.328,0.079,0.573,0.284,1.013,0.291c0.251-0.156,0.388-0.396,0.616-0.558c0.351-0.253,0.854-0.417,1.282-0.564
		C102.79,24.473,103.192,24.35,103.7,24.104z M99,33.048c-0.425,1.299-1.641,1.54-2.618,2.271c-0.406,0.398-0.819,0.803-1.228,1.203
		c-1.485,1.197-2.784,2.902-3.684,4.672c1.969-0.616,3.639-1.572,5.259-2.593c0.525-0.301,1.054-0.604,1.581-0.904
		c0,0-0.05-1.63-0.058-1.657c0.446-0.061,0.797-0.32,1.017-0.614C99.282,34.559,99.342,33.648,99,33.048z M104.661,71.642
		c0.021,0,0.038,0,0.054,0c-0.037,0.052-0.002,0.014-0.054,0.054C104.661,71.679,104.661,71.659,104.661,71.642z"/>
	<path fill-rule="evenodd" clip-rule="evenodd" fill="#FFFFFF" d="M242.684,18.239c0.427,0.147,0.932,0.311,1.282,0.564
		c0.228,0.162,0.364,0.403,0.616,0.558c0.439-0.006,0.684-0.211,1.012-0.29c0.373-0.094,1.129,0.423,1.26,0.587
		c0.006,0.035,0.019,0.07,0.022,0.104c0,0.011,0,0.019,0,0.029c-0.096,0.01-0.195,0.017-0.288,0.025
		c-0.042,0.052-0.007,0.019-0.059,0.054c0.048,0.116,0.282,0.229,0.402,0.27c0.055,0.263,0.164,0.336,0.268,0.533
		c0.26,0.511-0.211,1.11-0.294,1.334c0.037,0,0.072,0,0.107,0c-0.216,0.274-0.356,1.218-0.508,1.628
		c0.072,0.206,0.349,0.199,0.454,0.403c0.212-0.021,0.259-0.137,0.428-0.162c0.135,0.027,0.268,0.056,0.399,0.081
		c0.071-0.06,0.144-0.125,0.214-0.185c0.236-0.073,0.315,0.097,0.428,0.13c0.168-0.017,0.34-0.033,0.504-0.054
		c0.061,0.015,0.701,0.417,0.778,0.483c0.22,0.185,0.19,0.371,0.319,0.668c0.251,0.336,0.5,0.676,0.747,1.014
		c0.228,0.388,0.275,0.826,0.535,1.174c1.742,2.34,3.87,4.321,5.636,6.651c0.349,0.458,1.627,1.74,1.736,2.218
		c0.07,0.313-0.149,0.543-0.187,0.8c-0.307-0.004-0.655,0.481-1.041,0.587c-1.035-0.179-2.066-0.355-3.1-0.533
		c-2.906-0.595-5.439-1.351-8.119-2.056c-0.276,0.07-0.411,0.483-0.564,0.69c-0.21,0.289-0.421,0.573-0.639,0.857
		c-0.44,0.975,0.29,2.064,0.085,3.257c-0.057,0.311-0.173,0.836-0.162,1.095c0.017,0.257,0.033,0.519,0.05,0.774
		c-0.373,2.16-0.201,4.96,0.027,7c0.056,1.147,0.107,2.296,0.161,3.448c0.334,1.842,0.614,3.713,1.098,5.58
		c0.212,0.826,0.519,1.751,0.72,2.643c0.061,0.517,0.122,1.033,0.187,1.547c0,0.232,0,0.465,0,0.695
		c0.203,0.357,0.409,0.714,0.614,1.071c0.054,0.324-0.159,0.572-0.105,0.828c0.247,1.087,0.498,2.172,0.749,3.259
		c0.068,0.417,0.139,0.838,0.211,1.253c0.22,0.724,0.644,1.332,0.88,2.004c0.118,0.502,0.232,0.998,0.351,1.496
		c0.234,0.566,0.612,1.218,0.771,1.896c0.43,1.773,0.12,3.607-0.185,5.263c-0.01,0.455-0.019,0.909-0.029,1.361
		c-0.24,1.407-0.1,2.824-0.506,3.873c0.052,0.608,0.108,1.212,0.162,1.815c0.105,1.381,0.211,2.761,0.317,4.141
		c0.307,1.027,1.1,1.815,0.614,2.805c-0.293,0.042-0.559,0.209-0.826,0.268c-0.788,0.168-1.653-0.118-2.299-0.162
		c-0.222-0.996-0.187-2.396-0.187-3.658c0-0.792-0.048-1.568,0.054-2.166c-0.035-0.444-0.072-0.89-0.107-1.336
		c0.224-1.095,0.583-2.182,0.295-3.444c-0.322-1.406-0.895-3.024-1.203-4.404c-0.096-1.087-0.193-2.176-0.295-3.261
		c-0.284-0.977-0.703-1.643-1.013-2.456c-0.161-0.535-0.321-1.068-0.481-1.602c-0.653-1.357-1.316-2.858-2.109-4.194
		c-0.456-0.77-1.216-1.463-1.576-2.377c-0.181-0.044-0.384-0.11-0.587-0.185c0.01,0.042,0.019,0.085,0.026,0.132
		c0,0.008,0,0.017,0,0.025c-0.975-0.064-1.945-0.641-2.827-0.908c-1.483-0.444-2.819-0.232-4.251,0.081
		c-0.066,0.463-0.275,0.722-0.373,1.098c-0.125,0.604-0.249,1.209-0.376,1.815c-0.27,1.504-0.249,3.108-0.639,4.377
		c-0.218,0.709-0.581,1.421-0.934,2.033c-0.188,0.311-0.378,0.623-0.563,0.934c-0.17,1.62-0.338,3.24-0.508,4.86
		c-0.548,2.446-1.363,4.69-1.709,7.344c0.056,0.359,0.107,0.714,0.161,1.068c-0.054,0.249-0.105,0.5-0.161,0.749
		c0.043,0.404,0.182,0.975,0.188,1.628c-0.081-0.033-0.033,0.002-0.081-0.05c-0.052,0.066-0.027,0.023-0.027,0.104
		c-0.222,0.589-0.67,0.465-1.148,0.774c-0.515,0.336-0.822,1.017-1.28,1.417c-0.087,0.075-1.463,0.562-1.657,0.562
		c-0.162-0.056-0.322-0.11-0.481-0.162c-0.179,0.023-0.398,0.213-0.693,0.133c-0.315-0.087-0.504-0.372-0.773-0.506
		c-0.26-1.238,0.919-1.238,1.576-1.658c0.884-0.566,1.902-1.535,2.216-2.643c0.67-2.402,0.025-5.977,0.268-8.813
		c0.006-0.792,0.015-1.585,0.022-2.377c0.483-2.784,1.206-5.327,1.739-8.041c0.18-0.919-0.003-2.929-0.081-3.711
		c0.01-1.13,0.021-2.261,0.026-3.392c-0.151-0.351-0.443-0.568-0.616-0.882c0.04-0.265,0.181-0.298,0.269-0.508
		c0.021-0.108-0.059-0.158-0.079-0.32c0.147-0.137,0.268-0.16,0.292-0.429c-0.01-0.017-0.017-0.033-0.026-0.054
		c-0.212-0.008-0.426-0.017-0.642-0.025c-0.122-0.062-0.246-0.125-0.371-0.187c-0.019-0.027-0.035-0.054-0.052-0.079
		c0.349-0.313,0.386-0.87,0.589-1.336c0.354-0.84,0.795-1.659,1.17-2.566c0.225-0.444,0.448-0.89,0.67-1.334
		c0.16-0.67,0.32-1.336,0.479-2.002c0.225-0.483,0.448-0.962,0.67-1.446c0-0.487,0-0.975,0-1.469c0.14-0.743,0.284-1.496,0.426-2.24
		c0.39-1.39,0.786-2.78,1.174-4.167c0.214-0.538,0.572-0.998,0.697-1.629c0.098-0.504-0.393-1.209-0.481-1.655
		c-0.104-0.508-0.234-1.102-0.135-1.709c0.024-0.268,0.054-0.537,0.081-0.805c-0.135-0.633-0.214-1.641-0.428-2.216
		c-0.019,0-0.035,0-0.054,0c-0.315-0.114-0.552,0.266-0.693,0.428c-0.516,0.57-1.032,1.141-1.551,1.711
		c-1.171,1.16-2.608,2-3.898,3.043c-0.524,0.425-1.207,1.141-1.898,1.336c-0.454,0.131-1.054-0.263-1.39-0.4
		c-0.295-0.537-0.118-1.67-0.292-2.298c-0.476-1.738-0.476-3.941-0.561-5.821c-0.029-0.596-0.398-1.803-0.238-2.218
		c0.178-0.477,0.945-0.801,1.063-1.174c-0.019-0.126-0.033-0.249-0.052-0.375c0.075-0.172,0.278-0.72,0.43-0.854
		c-0.019-0.203-0.091-0.251-0.162-0.398c0.199-0.045,0.393-0.089,0.59-0.135c0.303-0.241,0.604-0.479,0.906-0.72
		c0.209-0.071,0.709,0.268,0.775,0.371c0.027,0.172,0.053,0.34,0.079,0.51c0.286,0.455,0.572,0.905,0.854,1.359
		c0.042,1.021-1.943,1.623-2.429,2.645c-0.448,0.942,0.436,4.356,0.773,5.13c0.168,0.205,0.338,0.409,0.509,0.614
		c0.017,0.006,0.035,0.017,0.054,0.025c0.382-0.406,0.766-0.817,1.147-1.228c0.591-0.471,1.248-0.946,1.733-1.522
		c1.428-1.689,2.151-4.767,5.185-4.782c0.025-0.023,0.054-0.052,0.081-0.079c-0.075-0.423-0.38-0.605-0.535-0.96
		c-0.087,0.031-0.075,0.036-0.135,0.079c-0.044-0.035-0.09-0.071-0.133-0.106c0.021-0.045,0.035-0.089,0.054-0.133
		c0.019-0.01,0.035-0.021,0.052-0.027c0.027,0.035,0.054,0.07,0.081,0.106c0.024,0,0.054,0,0.081,0
		c0.06-0.129,0.05-0.237-0.081-0.322c0-0.006,0-0.017,0-0.027c0.079,0.037,0.031,0,0.081,0.052c0.214-0.133,0.118-1.454,0.133-1.521
		c0.28-0.344,0.794-0.475,1.097-0.799c0.088-0.218,0.177-0.427,0.264-0.641c0.297-0.479,0.788-0.875,1.098-1.338
		c0.487-0.726,0.695-1.614,0.961-2.51c0.01-0.174,0.028-0.224-0.106-0.265c-0.037,0.125-0.07,0.249-0.109,0.373
		c-0.025,0.017-0.055,0.036-0.079,0.052c-0.133-0.791,1.056-0.957,1.415-1.334c0.266-0.274,0.394-0.992,0.643-1.361
		c0.71-1.064,2.168-1.711,3.952-1.683C242.258,17.395,242.661,17.517,242.684,18.239z M246.183,28.47
		c0.221,0.294,0.571,0.554,1.017,0.614c-0.008,0.027-0.058,1.658-0.058,1.658c0.526,0.301,1.056,0.604,1.581,0.904
		c1.62,1.021,3.29,1.977,5.259,2.593c-0.9-1.77-2.199-3.475-3.685-4.672c-0.409-0.4-0.821-0.805-1.229-1.203
		c-0.977-0.732-2.192-0.973-2.618-2.271C246.109,26.692,246.169,27.603,246.183,28.47z M240.79,64.74
		c-0.052-0.04-0.017-0.002-0.054-0.054c0.017,0,0.033,0,0.054,0C240.79,64.703,240.79,64.724,240.79,64.74z"/>
	<path fill-rule="evenodd" clip-rule="evenodd" fill="#FFFFFF" d="M171.614,94.136c-0.139-0.015-0.11,0.008-0.17-0.081
		c-0.211-0.39-0.066-0.826,0-1.218c0.118-0.658-0.073-1.305-0.224-1.759c-0.612-1.782-0.975-3.645-1.473-5.539
		c-0.423-1.62-0.842-3.291-0.791-5.296c0.05-2.07,0.828-3.825,0.708-6.028c-0.094-1.672-0.38-3.112-0.681-4.612
		c-0.396-2.35-0.792-4.698-1.188-7.049c0-0.384,0-0.776,0-1.16c0-1.367,0.105-2.433,0.34-3.479c0.083-0.51,0.168-1.022,0.255-1.529
		c0.651-1.351,1.301-2.701,1.952-4.049c-0.087-0.718-0.17-1.436-0.253-2.149c0,0.046,0,0.094,0,0.141
		c0.014-0.008,0.033-0.019,0.056-0.029c0.056-0.077,0.11-0.149,0.168-0.226c0-0.01,0-0.017,0-0.027c-0.066,0-0.13,0-0.199,0
		c-0.527-1.351-1.056-2.701-1.585-4.05c-0.985-2.443-1.711-4.839-2.349-7.188c-0.303-1.114-0.095-2.118-0.224-3.564
		c-0.1-1.093-0.257-2.782,0-4.02c0.176-0.716,0.356-1.434,0.533-2.151c0.125-1.51,0.249-3.019,0.372-4.526
		c0.12-0.844-0.021-2.705-0.17-3.398c-0.127-0.585,0.099-1.089,0-1.643c-0.17-0.925-0.27-2.077-0.202-3.056c0-0.583,0-1.168,0-1.753
		c0.011-0.361,0.019-0.718,0.031-1.075c0-0.322,0-0.641,0-0.96c0.181-1.081,0.019-2.222-0.141-3.23
		c-0.064-0.407,0.068-0.784-0.056-1.187c-0.361-1.172-1.328-3.361-0.792-4.811c0.765,0,1.527,0,2.292,0
		c0.058,0.372,0.176,0.863,0.367,1.133c0.164,0.222,0.49,0.377,0.566,0.676c0,0.218,0,0.436,0,0.653
		c0.112,0.712,0.095,1.396,0,2.035c-0.05,0.317,0.162,0.813,0.056,1.332c-0.118,0.575-0.34,1.4-0.226,2.12
		c0.054,1.105,0.112,2.209,0.17,3.313c0.131,1.149,0.264,2.303,0.394,3.452c0.162,0.689,0.322,1.38,0.483,2.066
		c0.083,0.489-0.089,1.047-0.172,1.444c-0.195,0.971-0.135,2.155-0.139,3.255c-0.01,0.313-0.019,0.622-0.029,0.933
		c0.019-0.008,0.04-0.019,0.058-0.031c0.139-0.222,0.282-0.448,0.423-0.676c0.183,0.091,0.315-0.002,0.425-0.143
		c-0.098,0.021-0.191,0.039-0.284,0.056c0-0.035,0-0.072,0-0.11c0.16-0.05,0.353-0.102,0.566-0.143
		c0.006-0.058,1.303-1.274,1.303-1.274c0.473-0.162,1.998-0.261,2.321,0c0.608,0.494,1.948,0.998,2.431,1.641
		c0.363,0.485,0.295,1.017,0.54,1.444c-0.025,0.23-0.106,0.716,0.056,0.936c0.213,0.284,0.703,0.487,0.879,0.708
		c0.531,0.664,1.253,1.141,1.896,1.697c0.734,0.558,1.471,1.112,2.208,1.67c0.29,0.218,0.701,0.286,0.79,0.706
		c0.292,1.342-2.109,2.883-2.773,3.624c-0.224,0.251-0.166,1.57-0.311,1.641c-0.135,0.253-0.353,0.544-0.453,0.851
		c0.056,0.029,0.114,0.058,0.172,0.087c-0.012,0.043-0.021,0.093-0.029,0.137c-0.094,0.025-0.121,0.029-0.172,0.087
		c-0.284,0.69-0.263,1.348-0.819,1.753c-0.33-0.139-0.875-0.421-1.193-0.396c0,0.056,0,0.116,0,0.172
		c0.191,0.253,0.379,0.508,0.568,0.761c0.137,0.45,0.156,1.166,0.226,1.56c-0.019,0.33-0.037,0.66-0.052,0.992
		c0.118,0.527,0.243,1.052,0.361,1.585c0.232,0.568,0.602,1.062,0.824,1.695c0.27,0.773,0.093,1.674,0.396,2.263
		c0.098,0.039,0.189,0.081,0.284,0.114c0,0.013,0,0.019,0,0.029c-0.13-0.01-0.268-0.017-0.394-0.029
		c-0.015,0.925,0.43,2.589,0.786,3.228c-0.025,0.085-0.054,0.168-0.081,0.251c0.021,0.154,0.203,0.349,0.253,0.485
		c-0.006,0.168-0.019,0.338-0.029,0.51c0.108,0.573,0.303,1.38,0.34,1.811c0.077,0.84-0.089,1.446,0.311,2.035
		c-0.037,0.181-0.097,0.181-0.195,0.284c0.179,0.292,0.38,1.121,0.309,1.299c0.16,0.425,0.322,0.853,0.481,1.276
		c0.768,1.938,1.439,3.89,2.01,6.057c0.425,1.625,0.504,3.211,0.906,4.927c0.212,0.908,0.647,1.765,0.932,2.599
		c0.01,0.249,0.019,0.492,0.029,0.736c0.091,0.453,0.121,1.01,0.255,1.531c0.216,0.581,0.434,1.168,0.647,1.753
		c0.197,0.593,0.255,1.268,0.342,1.952c-0.016,0.508-0.039,1.016-0.056,1.529c-0.029,0.1-0.135,0.375-0.114,0.51
		c0.089,0.506-0.087,1.193,0,1.78c0.278,1.927-0.183,4.628,0.34,6.624c-0.029,0.394-0.054,0.792-0.087,1.19
		c0.073,0.359,0.438,0.635,0.596,0.988c0.475,1.054,0.848,2.134,1.531,2.973c0.546,0.676,1.439,0.602,1.527,1.837
		c-0.14,0.09-0.152,0.227-0.28,0.312c-0.33,0.118-0.808-0.004-1.05,0.172c-0.106-0.085-0.206-0.172-0.313-0.257
		c-0.05,0.958-1.915-0.022-2.093-0.28c-0.336-0.493-0.485-1.711-0.79-2.35c-0.204-0.415-0.4-1.019-0.681-1.413
		c-0.274-0.392-0.668-0.834-0.851-1.361c-0.28-0.83,0.193-1.635,0.342-2.351c0.129-0.618-0.043-1.448-0.172-1.954
		c-0.5-1.939-1.147-3.657-1.61-5.543c-0.199-1.452-0.4-2.904-0.595-4.358c-0.33-0.753-0.662-1.51-0.994-2.266
		c-0.178-0.566-0.356-1.132-0.535-1.697c-0.512-1.409-1.126-2.784-1.811-3.821c0.029,0,0.058,0,0.083,0
		c-0.025-0.145-0.079-0.23-0.168-0.311c-0.11-0.002-0.058,0.056-0.112-0.054c-0.236-0.178-0.307-0.531-0.483-0.767
		c-0.678-0.907-1.299-1.965-1.896-2.944c-0.253-0.417-0.372-1.214-0.736-1.525c-0.45,0.139-0.903,0.28-1.357,0.421
		c-0.093,1.5-0.189,3.001-0.284,4.501c0.01,0.471,0.019,0.944,0.029,1.415c0.104,0.774-0.035,2.141-0.199,2.973
		c-0.413,2.093-1.004,4.211-1.386,6.366c-0.135,0.745,0.201,1.927,0.338,2.63c0.181,0.921,0.056,1.896,0.056,2.946
		c0,0.927,0.12,2.214-0.056,3.228c-0.162,0.921,0.133,2.417,0.423,2.969c0.17,0.315,0.479,0.614,0.597,0.989
		c-0.022,0.282-0.039,0.568-0.058,0.851c0.131,1.042,0.172,1.952-0.029,2.971c0.04,0.332,0.077,0.66,0.114,0.991
		c0.004,0.027-0.262,0.825-0.313,0.908c-0.473,0.199-0.898,0.226-1.299-0.088c-0.572,0.337-0.775,0.396-1.356-0.054
		c-0.211-0.019-0.417-0.041-0.623-0.058c-0.1-0.21-0.33-0.609-0.257-0.851c0.075-0.413,0.508-0.556,0.709-0.848
		C171.393,96.156,171.637,95.281,171.614,94.136z M171.417,23.755c0.085,0.025,0.008,0.037-0.025,0.083c-0.011,0-0.023,0-0.029,0
		c0-0.019,0-0.036,0-0.054C171.382,23.773,171.398,23.763,171.417,23.755z M177.985,28.028c0,0.045,0,0.093,0,0.139
		C177.985,28.122,177.985,28.074,177.985,28.028z M178.097,31.478c0-0.048,0-0.093,0-0.139c-0.096-0.047-0.063-0.029-0.112-0.114
		c-0.039,0-0.079,0-0.116,0c-0.008,0.01-0.017,0.021-0.027,0.029c0.011,0.419-0.263,0.851-0.311,1.444
		c-0.05,0.589,0.425,1.214,0.542,1.61c0.436-0.16,1.236-0.66,1.498-1.102c-0.33-0.641-0.875-1.197-1.33-1.728
		C178.19,31.478,178.143,31.478,178.097,31.478z M178.433,40.535c0.013,0.021,0.023,0.04,0.031,0.056c-0.019,0-0.038,0-0.058,0
		C178.417,40.575,178.427,40.556,178.433,40.535z M166.831,41.075c0.031,0.068,0.058,0.13,0.087,0.199
		C166.889,41.205,166.862,41.143,166.831,41.075z"/>
	<path fill-rule="evenodd" clip-rule="evenodd" fill="#FFFFFF" d="M277.101,96.911c0.202,0.292,0.635,0.435,0.71,0.848
		c0.072,0.242-0.158,0.641-0.257,0.851c-0.206,0.017-0.411,0.039-0.623,0.058c-0.581,0.45-0.784,0.391-1.356,0.054
		c-0.4,0.313-0.825,0.287-1.299,0.088c-0.052-0.083-0.317-0.88-0.313-0.908c0.038-0.331,0.075-0.659,0.114-0.991
		c-0.201-1.019-0.159-1.929-0.028-2.971c-0.02-0.282-0.036-0.568-0.059-0.851c0.118-0.375,0.428-0.674,0.598-0.989
		c0.29-0.552,0.585-2.048,0.423-2.969c-0.176-1.014-0.056-2.301-0.056-3.228c0-1.049-0.125-2.024,0.056-2.946
		c0.137-0.703,0.473-1.885,0.338-2.63c-0.381-2.155-0.973-4.273-1.386-6.366c-0.163-0.832-0.303-2.199-0.198-2.973
		c0.01-0.471,0.019-0.944,0.028-1.415c-0.095-1.5-0.19-3.002-0.284-4.501c-0.454-0.141-0.906-0.282-1.356-0.421
		c-0.365,0.311-0.483,1.108-0.736,1.525c-0.598,0.979-1.218,2.037-1.896,2.944c-0.176,0.236-0.247,0.589-0.483,0.767
		c-0.054,0.11-0.002,0.052-0.111,0.054c-0.09,0.081-0.144,0.166-0.168,0.311c0.024,0,0.054,0,0.082,0
		c-0.684,1.037-1.298,2.413-1.811,3.821c-0.179,0.564-0.356,1.131-0.535,1.697c-0.332,0.755-0.664,1.512-0.994,2.266
		c-0.194,1.454-0.396,2.906-0.595,4.358c-0.463,1.886-1.11,3.604-1.61,5.543c-0.128,0.506-0.301,1.336-0.172,1.954
		c0.149,0.716,0.622,1.521,0.343,2.351c-0.183,0.527-0.577,0.969-0.851,1.361c-0.28,0.394-0.478,0.998-0.681,1.413
		c-0.305,0.639-0.454,1.856-0.791,2.35c-0.178,0.258-2.043,1.239-2.093,0.28c-0.107,0.085-0.207,0.172-0.313,0.257
		c-0.242-0.176-0.72-0.054-1.05-0.172c-0.128-0.085-0.141-0.222-0.279-0.312c0.087-1.235,0.98-1.161,1.526-1.837
		c0.683-0.838,1.056-1.919,1.531-2.973c0.157-0.353,0.522-0.629,0.595-0.988c-0.032-0.398-0.058-0.796-0.087-1.19
		c0.523-1.996,0.063-4.697,0.341-6.624c0.087-0.587-0.09-1.273,0-1.78c0.021-0.135-0.085-0.411-0.114-0.51
		c-0.017-0.513-0.04-1.021-0.057-1.529c0.088-0.685,0.146-1.359,0.343-1.952c0.214-0.585,0.432-1.172,0.647-1.753
		c0.135-0.521,0.164-1.079,0.255-1.531c0.011-0.245,0.019-0.487,0.029-0.736c0.284-0.834,0.72-1.691,0.932-2.599
		c0.402-1.716,0.48-3.303,0.906-4.927c0.57-2.167,1.242-4.12,2.01-6.057c0.16-0.423,0.322-0.851,0.481-1.276
		c-0.07-0.178,0.131-1.006,0.31-1.299c-0.098-0.104-0.158-0.104-0.195-0.284c0.4-0.589,0.234-1.195,0.312-2.035
		c0.037-0.431,0.231-1.238,0.34-1.811c-0.011-0.172-0.022-0.342-0.029-0.51c0.05-0.137,0.232-0.332,0.253-0.485
		c-0.026-0.083-0.056-0.166-0.08-0.251c0.356-0.639,0.801-2.303,0.786-3.228c-0.127,0.013-0.264,0.019-0.395,0.029
		c0-0.01,0-0.017,0-0.029c0.096-0.033,0.187-0.075,0.284-0.114c0.303-0.589,0.127-1.49,0.396-2.263
		c0.222-0.633,0.591-1.126,0.823-1.695c0.118-0.533,0.243-1.058,0.361-1.585c-0.015-0.332-0.033-0.662-0.052-0.992
		c0.07-0.394,0.089-1.11,0.226-1.56c0.188-0.253,0.378-0.508,0.568-0.761c0-0.056,0-0.116,0-0.172
		c-0.317-0.025-0.862,0.257-1.192,0.396c-0.557-0.405-0.535-1.063-0.819-1.753c-0.052-0.058-0.079-0.063-0.173-0.087
		c-0.008-0.043-0.017-0.093-0.028-0.137c0.058-0.029,0.116-0.058,0.172-0.087c-0.1-0.307-0.317-0.597-0.452-0.851
		c-0.146-0.07-0.087-1.39-0.312-1.641c-0.664-0.741-3.065-2.282-2.773-3.624c0.089-0.419,0.5-0.488,0.79-0.706
		c0.737-0.558,1.474-1.112,2.208-1.67c0.643-0.556,1.364-1.033,1.896-1.697c0.177-0.22,0.666-0.423,0.88-0.708
		c0.162-0.22,0.081-0.705,0.056-0.936c0.245-0.427,0.177-0.958,0.54-1.444c0.483-0.643,1.823-1.147,2.431-1.641
		c0.324-0.261,1.849-0.162,2.321,0c0,0,1.297,1.216,1.303,1.274c0.214,0.042,0.407,0.093,0.566,0.143c0,0.038,0,0.075,0,0.11
		c-0.093-0.017-0.187-0.035-0.284-0.056c0.11,0.141,0.243,0.234,0.426,0.143c0.141,0.228,0.284,0.454,0.423,0.676
		c0.019,0.012,0.039,0.023,0.058,0.031c-0.01-0.311-0.019-0.62-0.028-0.933c-0.005-1.1,0.056-2.284-0.14-3.255
		c-0.083-0.396-0.255-0.955-0.172-1.444c0.162-0.687,0.321-1.377,0.483-2.066c0.131-1.149,0.264-2.303,0.395-3.452
		c0.058-1.104,0.116-2.208,0.17-3.313c0.114-0.72-0.108-1.545-0.227-2.12c-0.105-0.519,0.106-1.015,0.057-1.332
		c-0.096-0.639-0.112-1.323,0-2.035c0-0.218,0-0.436,0-0.653c0.076-0.299,0.402-0.454,0.566-0.676
		c0.19-0.27,0.309-0.761,0.367-1.133c0.765,0,1.526,0,2.292,0c0.535,1.45-0.432,3.639-0.793,4.811
		c-0.124,0.402,0.009,0.78-0.056,1.187c-0.159,1.008-0.321,2.149-0.141,3.23c0,0.319,0,0.639,0,0.96
		c0.012,0.357,0.021,0.713,0.03,1.075c0,0.585,0,1.17,0,1.753c0.069,0.979-0.03,2.13-0.201,3.056c-0.1,0.554,0.127,1.058,0,1.643
		c-0.148,0.693-0.29,2.554-0.17,3.398c0.123,1.508,0.247,3.016,0.371,4.526c0.177,0.718,0.357,1.436,0.533,2.151
		c0.258,1.238,0.1,2.927,0,4.02c-0.128,1.446,0.079,2.45-0.224,3.564c-0.637,2.349-1.363,4.745-2.349,7.188
		c-0.528,1.349-1.058,2.699-1.585,4.05c-0.068,0-0.133,0-0.198,0c0,0.01,0,0.017,0,0.027c0.058,0.077,0.111,0.149,0.168,0.226
		c0.022,0.01,0.041,0.021,0.056,0.029c0-0.047,0-0.095,0-0.141c-0.083,0.714-0.166,1.432-0.253,2.149
		c0.651,1.349,1.301,2.699,1.952,4.049c0.087,0.506,0.172,1.019,0.255,1.529c0.234,1.046,0.34,2.112,0.34,3.479
		c0,0.384,0,0.776,0,1.16c-0.396,2.351-0.792,4.699-1.188,7.049c-0.301,1.5-0.587,2.94-0.681,4.612
		c-0.12,2.203,0.658,3.958,0.708,6.028c0.052,2.006-0.367,3.676-0.791,5.296c-0.497,1.894-0.86,3.757-1.473,5.539
		c-0.151,0.455-0.342,1.102-0.224,1.759c0.066,0.392,0.211,0.828,0,1.218c-0.061,0.089-0.031,0.066-0.17,0.081
		C276.346,95.281,276.591,96.156,277.101,96.911z M276.621,23.784c0,0.019,0,0.035,0,0.054c-0.007,0-0.019,0-0.029,0
		c-0.033-0.046-0.11-0.058-0.025-0.083C276.584,23.763,276.602,23.773,276.621,23.784z M269.999,28.167c0-0.045,0-0.093,0-0.139
		C269.999,28.074,269.999,28.122,269.999,28.167z M269.744,31.478c-0.455,0.531-1,1.087-1.33,1.728
		c0.262,0.442,1.063,0.942,1.498,1.102c0.116-0.396,0.591-1.021,0.541-1.61c-0.048-0.593-0.321-1.025-0.311-1.444
		c-0.011-0.008-0.02-0.019-0.027-0.029c-0.037,0-0.077,0-0.116,0c-0.05,0.085-0.017,0.066-0.112,0.114c0,0.046,0,0.091,0,0.139
		C269.841,31.478,269.793,31.478,269.744,31.478z M269.578,40.591c-0.021,0-0.04,0-0.059,0c0.009-0.017,0.019-0.035,0.031-0.056
		C269.557,40.556,269.567,40.575,269.578,40.591z M281.066,41.274c0.029-0.069,0.056-0.131,0.087-0.199
		C281.122,41.143,281.095,41.205,281.066,41.274z"/>
	<path fill-rule="evenodd" clip-rule="evenodd" fill="#FFFFFF" d="M148.646,63.35c-0.208,0.013-0.361,0.104-0.483,0.133
		c-0.187-0.019-0.375-0.035-0.564-0.054c-0.023,0.043-0.052,0.089-0.079,0.13c0.037,0.156,0.066,0.1,0.027,0.218
		c-0.633,0.17-1.249,0.481-1.898,0.508c-0.022,0.141-0.047,0.13-0.11,0.213c0.019,0.199,0.102,0.193,0.056,0.322
		c-0.023,0.01-0.037,0.017-0.056,0.027c-0.321-0.023-0.688-0.351-1.07-0.216c-0.527,0.191-0.987,0.969-1.311,1.394
		c-0.517,0.508-1.037,1.015-1.554,1.525c-0.168,0.792-0.338,1.587-0.506,2.381c1.344,0.153,2.454,0.485,3.587,0.803
		c0.854,0.172,1.709,0.34,2.566,0.51c0.979,0.264,2.33,0.458,3.105-0.054c0-0.01,0-0.019,0-0.027
		c-0.222-0.036-0.444-0.071-0.668-0.108c0-0.011,0-0.017,0-0.027c0.359-0.255,0.896,0.181,1.23,0.135
		c0.398-0.135,0.786-0.268,1.178-0.4c0.709-0.116,1.245,0.286,1.69,0.481c0.561,0.125,1.121,0.251,1.683,0.374
		c0.33,0.407,0.57,1.213,0.349,1.792c-0.195,0.135-0.394,0.268-0.587,0.404c0.577,1.05,1.66,1.49,2.035,2.807
		c0.448,1.596-0.104,3.409-0.726,4.448c-0.193,0.326-0.72,0.971-1.365,0.693c-0.146-0.06-0.552-0.529-0.616-0.67
		c0.021-0.123,0.037-0.245,0.056-0.371c-0.087-0.43-0.312-0.739-0.536-1.019c0.044-0.139,0.079-0.218,0.079-0.429
		c-0.575-0.125-0.512-0.616-0.801-0.962c-0.286-0.338-0.857-0.458-1.126-0.803c-0.315-0.398-0.527-0.981-0.936-1.284
		c-0.208-0.116-0.413-0.23-0.616-0.349c-0.168,0-0.34,0-0.508,0c-0.226-0.249-0.448-0.5-0.67-0.749
		c-1.199-0.635-4.402-0.672-6.051-0.349c-0.971,0.011-1.942,0.017-2.917,0.027c0.021,0.811,0.037,1.62,0.056,2.436
		c-0.019,0.454-0.035,0.911-0.056,1.365c0.243,0.556,0.483,1.106,0.722,1.66c0.535,1.205,1.093,2.423,1.502,3.722
		c0.178,0.784,0.354,1.568,0.533,2.354c0.251,0.83,0.566,1.736,0.886,2.516c0.206,0.5,0.407,0.998,0.614,1.498
		c0.288,0.232,0.858,0.118,1.153,0.348c0.054,0.054,0.039,0.046,0.052,0.162c-0.035,0.125-0.073,0.249-0.108,0.374
		c-0.11,0.019-0.214,0.037-0.319,0.054c0.104,0.512,0.392,0.927,0.589,1.392c0.133,0.324,0.073,0.602,0.133,0.911
		c0.146,0.015,0.183,0.031,0.241,0.135c0.008,0.006,0.019,0.017,0.029,0.021c-0.094,0.34-0.185,0.682-0.27,1.022
		c-0.045,0.66-0.089,1.319-0.133,1.981c-0.27,0.112-0.535,0.229-0.803,0.344c-0.209,0.046-1.093-0.435-1.288-0.534
		c-0.28,0.951-0.957,1.711-1.874,2.005c-1.132,0.372-2.354,0.837-2.809-0.291c-0.253-0.635-0.093-1.155,0.188-1.686
		c0.146-0.012,0.305-0.081,0.349-0.162c0.052,0.008,0.104,0.019,0.158,0.029c0.052,0.079,0.008,0.025,0.079,0.052
		c0-0.008,0-0.019,0-0.029c-0.025-0.104-0.025-0.06-0.025-0.16c0.369-0.232,0.788-0.49,1.122-0.776
		c0.228-0.187,0.141-0.477,0.458-0.614c0.004-0.934,0.768-1.118,0.962-1.796c0.187-0.641-0.66-1.564-0.135-1.977
		c-0.247-0.317-1.095-1.63-1.095-1.927c0,0-0.1-0.257-0.164-0.135c-0.06-0.197-0.122-0.392-0.185-0.591
		c-1.27-1.833-2.649-4.483-3.612-7.037c-0.377-0.994-0.469-2.014-0.78-3.054c-0.197-0.444-0.392-0.888-0.585-1.336
		c-0.139-0.483,0.266-2.164,0.021-2.332c-0.904-0.411-1.794-0.425-2.539-0.987c-0.351-0.262-0.375-0.693-0.562-1.126
		c-0.583-1.332-0.027-2.938,0.508-3.853c0.178-0.321,0.357-0.643,0.533-0.964c-0.326,0.006-0.45-0.096-0.666-0.189
		c0-0.025,0-0.05,0-0.079c0.104-0.131,0.178-0.133,0.187-0.374c-0.064-0.048-0.125-0.091-0.187-0.137
		c0.317-1.212,0.218-2.854,0.457-4.228c0.249-2.017,0.496-4.031,0.749-6.047c-0.089-0.564-0.18-1.125-0.271-1.687
		c-0.197-0.994-0.135-2.128-0.185-3.078c-0.071-1.394,0.164-2.938,0.375-4.147c0.027-0.583,0.052-1.166,0.081-1.743
		c0.073-0.473,0.102-1.208,0.05-1.605c0.027-0.338,0.054-0.676,0.079-1.019c0.135-0.772,0.006-1.533,0.188-2.141
		c0.187-0.612,0.583-1.265,0.724-1.846c0.064-0.253-0.394-1.568-0.506-1.74c-0.423-0.633-1.554-0.737-2.305-1.043
		c-1.958-0.807-3.83-1.672-5.512-2.755c-0.274-0.176-1.589-0.788-1.688-0.994c-0.096-0.549-0.197-1.104-0.295-1.657
		c-0.33-1.058-0.693-2.174-0.962-3.319c-0.388-1.662-0.527-3.512-1.045-5.033c-0.28-0.83,1.068-2.72,0.778-3.211
		c-0.006-0.027-0.017-0.054-0.027-0.083c-0.22,0.027-0.313,0.014-0.457-0.077c0-0.188,0-0.377,0-0.562
		c0.442-0.079,0.62-0.268,1.205-0.27c0.075-0.425,0.324-0.49,0.538-0.751c0-0.133,0-0.266,0-0.4
		c0.043-0.027,0.087-0.052,0.135-0.081c0.315,0.139,1.334,0.929,1.415,1.232c0.123,0.444-0.139,1.017-0.211,1.421
		c-0.118,0.685-0.058,1.037-0.4,1.442c-0.402,0.473-1.639,0.697-1.365,1.715c0.597,2.236,1.315,4.496,2.356,6.344
		c0.301,0.598,0.604,1.193,0.909,1.792c0.502,0.452,1.419,0.583,2.087,0.857c0.942,0.386,1.838,0.867,2.941,1.124
		c0.892,0.089,1.786,0.179,2.678,0.268c0.446,0.098,0.894,0.197,1.34,0.295c0-0.027,0-0.052,0-0.079
		c-0.079-0.042-0.002-0.043,0.027-0.135c0.006,0,0.017,0,0.025,0c0,0.043,0,0.089,0,0.135c0.108-0.042,0.083-0.056,0.164-0.11
		c0-0.025,0-0.052,0-0.079c-0.097-0.031-0.211-0.025-0.294-0.054c1.303-0.228,1.732-2.116,1.925-3.749
		c0.052,0.017,0.105,0.038,0.162,0.054c0.229-1.452,0.88-1.556,1.604-2.595c0.158-0.226,0.351-0.479,0.483-0.697
		c0.036-0.17,0.071-0.34,0.106-0.508c0.869-0.771,1.388-0.996,2.595-1.286c0.251-0.052,0.502-0.105,0.751-0.158
		c0.365,0.064,0.604,0.241,0.832,0.295c-0.008,0.025-0.021,0.052-0.027,0.079c0.019-0.01,0.035-0.017,0.052-0.027
		c0.011-0.071,0.019-0.141,0.027-0.214c0.008,0,0.014,0,0.027,0c0.017,0,0.033,0,0.05,0c0.029,0.073,0.056,0.143,0.085,0.214
		c0.017-0.043,0.035-0.089,0.052-0.133c0.253,0.07,0.369,0.052,0.43,0.106c0.388,0.16,0.676,0.392,1.176,0.508
		c-0.027,0.338,0.398,0.374,0.562,0.589c0.043,0.1,0.087,0.195,0.131,0.294c-0.023-0.149-0.046-0.174-0.05-0.321
		c0.006,0.017,0.019,0.037,0.027,0.054c0.342,0.411,0.56,1.102,0.724,1.66c0.043-0.025,0.089-0.054,0.13-0.081
		c0.278,1.081,1.556,3.626,1.017,4.394c-0.075-0.038-0.004-0.071-0.077-0.029c-0.135,0.139-0.247,0.313-0.377,0.455
		c0.16,0.334-0.278,0.639-0.372,0.962c-0.199,0.664,0.031,1.334,0.344,2.06c-0.017,0.021-0.033,0.04-0.052,0.054
		c-0.014-0.162-0.05-0.22-0.16-0.294c0.054,0.178-0.043,0.311,0,0.51c0.108,0.49,0.259,0.637,0.349,1.151c0.023,0,0.05,0,0.079,0
		c0.01-0.062,0.019-0.123,0.027-0.189c0.009,0.008,0.017,0.019,0.027,0.027c-0.044,0.508,0.01,0.969-0.054,1.446
		c0.892,0.745,1.531,1.757,2.249,2.678c0.753,0.964,2.079,1.554,3.105,2.247c0.577,0.392,1.021,0.921,1.711,1.205
		c0.479-0.072,1.369-0.913,1.688-1.23c0.683-0.683,1.402-1.413,1.979-2.195c0.294-0.448,0.587-0.894,0.882-1.338
		c0.413-0.475,1.047-1.085,1.205-1.77c0.199-0.851-0.504-1.527-0.722-2.166c-0.066-0.205,0.153-0.315,0.188-0.454
		c-0.035-0.1-0.072-0.199-0.108-0.294c-0.081-0.396,0.438-0.652,0.587-0.859c0.232-0.312,0.467-0.625,0.699-0.936
		c0.28-0.239,1.568-0.762,2.087-0.668c0.011,0.087,0.017,0.179,0.027,0.266c-0.126,0.098-0.249,0.195-0.378,0.295
		c0.237,0.765-0.162,0.434-0.185,1.124c0.28,0.149,0.606,0.618,0.453,1.017c-0.064,0.093-0.108,0.104-0.268,0.108
		c0.056,0.357,0.056,0.666-0.027,0.776c-0.095-0.017-0.195-0.035-0.294-0.052c-0.264,0.589,0.095,0.989,0.216,1.66
		c0.062,0.34-0.137,0.906-0.239,1.201c-0.164,0.481-0.683,0.849-0.992,1.208c-0.178,0.201-0.45,0.697-0.616,0.962
		c-1.162,1.874-2.382,3.711-3.854,5.273c-0.382,0.405-1.031,1.865-1.498,2.006c-0.522,0.158-1.925-0.711-2.249-0.908
		c-1.921-1.179-3.682-2.483-5.46-3.773c-0.562-0.409-1.487-1.689-2.519-1.365c-1.201,0.38-1.738,1.542-2.139,2.73
		c-0.168,0.488-0.602,0.84-0.805,1.286c0,0.229,0,0.463,0,0.693c-0.127,0.768-0.251,1.444,0.079,2.116
		c0.206,0.216,0.411,0.427,0.616,0.643c0.073,0.535,0.143,1.07,0.216,1.607c0.1,0.185,0.282,0.365,0.373,0.587
		c0.185,0.448,0.224,0.923,0.458,1.309c0.608,1.019,1.091,1.757,1.444,3.108c0.342,1.309,0.463,2.676,0.72,4.095
		c0.135,0.739-0.013,1.649,0.323,2.168c-0.019,0.043-0.037,0.091-0.056,0.133c-0.071,0.01-0.144,0.019-0.212,0.027
		C148.536,63.01,148.592,63.178,148.646,63.35z M145.965,24.672c0.017,0,0.04,0,0.056,0c0,0.01,0,0.017,0,0.027
		c-0.017,0.017-0.04,0.033-0.056,0.054c-0.006,0-0.017,0-0.022,0C145.949,24.726,145.959,24.699,145.965,24.672z M145.887,24.752
		c0,0.052-0.015,0.083-0.054,0.158c-0.017-0.006-0.036-0.017-0.056-0.025C145.816,24.842,145.85,24.796,145.887,24.752z
		 M145.995,24.805c0.017,0.029,0.035,0.054,0.052,0.081C145.995,24.835,146.03,24.885,145.995,24.805z M143.775,24.885
		c0.017,0,0.033,0,0.052,0C143.808,24.885,143.792,24.885,143.775,24.885z M139.356,29.194c0.008,0.019,0.017,0.038,0.027,0.054
		C139.373,29.231,139.365,29.213,139.356,29.194z M139.329,29.248c0.011,0.019,0.021,0.035,0.027,0.052
		C139.35,29.283,139.34,29.267,139.329,29.248z M139.167,29.65c0,0.043,0,0.089,0,0.133c-0.008,0-0.019,0-0.025,0
		C139.149,29.74,139.159,29.694,139.167,29.65z M139.089,29.81c0.017,0,0.035,0,0.054,0c-0.019,0.035-0.037,0.071-0.054,0.106
		C139.089,29.881,139.089,29.845,139.089,29.81z M150.195,31.31c0.01,0.017,0.017,0.033,0.027,0.054
		C150.212,31.343,150.206,31.327,150.195,31.31z M145.648,91.399c0.036,0,0.066,0,0.104,0c0,0.01,0,0.017,0,0.027
		C145.714,91.416,145.684,91.41,145.648,91.399z M140.105,96.461c0.011,0.017,0.017,0.033,0.027,0.052
		C140.122,96.494,140.116,96.478,140.105,96.461z"/>
	<path fill-rule="evenodd" clip-rule="evenodd" fill="#FFFFFF" d="M302.788,69.42c-0.068-0.008-0.141-0.017-0.212-0.027
		c-0.019-0.042-0.037-0.089-0.056-0.133c0.336-0.519,0.188-1.429,0.323-2.167c0.258-1.419,0.378-2.786,0.721-4.095
		c0.353-1.351,0.836-2.089,1.443-3.107c0.234-0.386,0.273-0.861,0.458-1.309c0.092-0.222,0.274-0.402,0.374-0.587
		c0.072-0.538,0.143-1.073,0.216-1.608c0.205-0.216,0.41-0.427,0.616-0.643c0.329-0.672,0.205-1.349,0.078-2.116
		c0-0.23,0-0.465,0-0.693c-0.203-0.446-0.637-0.799-0.805-1.287c-0.4-1.188-0.938-2.35-2.139-2.73
		c-1.031-0.323-1.956,0.957-2.519,1.365c-1.777,1.29-3.539,2.595-5.46,3.773c-0.323,0.197-1.726,1.066-2.249,0.909
		c-0.467-0.141-1.115-1.602-1.497-2.006c-1.473-1.562-2.693-3.4-3.854-5.273c-0.166-0.266-0.438-0.761-0.616-0.963
		c-0.31-0.359-0.828-0.726-0.991-1.207c-0.103-0.294-0.301-0.861-0.239-1.201c0.12-0.67,0.479-1.07,0.216-1.66
		c-0.1,0.017-0.199,0.035-0.294,0.052c-0.083-0.11-0.083-0.419-0.027-0.776c-0.16-0.004-0.203-0.014-0.268-0.108
		c-0.153-0.398,0.172-0.867,0.452-1.016c-0.022-0.691-0.421-0.359-0.185-1.125c-0.129-0.1-0.251-0.197-0.378-0.294
		c0.011-0.087,0.017-0.179,0.027-0.266c0.519-0.093,1.807,0.429,2.087,0.668c0.232,0.311,0.467,0.625,0.699,0.936
		c0.149,0.208,0.668,0.462,0.587,0.859c-0.035,0.095-0.072,0.195-0.107,0.294c0.035,0.139,0.255,0.249,0.188,0.455
		c-0.218,0.639-0.921,1.315-0.722,2.166c0.157,0.685,0.792,1.294,1.205,1.77c0.294,0.444,0.587,0.89,0.882,1.338
		c0.576,0.782,1.296,1.512,1.979,2.195c0.319,0.317,1.21,1.158,1.688,1.23c0.691-0.284,1.135-0.813,1.712-1.206
		c1.026-0.693,2.353-1.282,3.105-2.247c0.718-0.921,1.356-1.934,2.249-2.678c-0.064-0.477-0.011-0.938-0.055-1.446
		c0.011-0.008,0.019-0.019,0.027-0.027c0.008,0.066,0.017,0.126,0.027,0.188c0.028,0,0.056,0,0.078,0
		c0.09-0.514,0.241-0.662,0.349-1.151c0.044-0.199-0.054-0.332,0-0.51c-0.109,0.075-0.146,0.133-0.159,0.295
		c-0.02-0.015-0.036-0.033-0.053-0.054c0.313-0.726,0.544-1.396,0.345-2.06c-0.093-0.323-0.531-0.628-0.371-0.962
		c-0.131-0.141-0.243-0.315-0.378-0.454c-0.072-0.042-0.002-0.008-0.076,0.029c-0.54-0.768,0.738-3.313,1.016-4.394
		c0.042,0.027,0.088,0.056,0.131,0.081c0.164-0.558,0.382-1.249,0.725-1.659c0.008-0.017,0.021-0.038,0.026-0.054
		c-0.004,0.147-0.026,0.172-0.05,0.322c0.044-0.1,0.088-0.195,0.131-0.295c0.164-0.215,0.59-0.251,0.563-0.589
		c0.5-0.116,0.788-0.349,1.176-0.508c0.061-0.054,0.177-0.035,0.43-0.106c0.017,0.043,0.035,0.089,0.052,0.133
		c0.029-0.07,0.056-0.141,0.085-0.213c0.017,0,0.033,0,0.05,0c0.013,0,0.019,0,0.027,0c0.008,0.072,0.017,0.143,0.026,0.213
		c0.017,0.01,0.033,0.017,0.053,0.027c-0.007-0.027-0.02-0.054-0.027-0.079c0.229-0.054,0.467-0.23,0.832-0.294
		c0.249,0.052,0.5,0.105,0.751,0.157c1.207,0.291,1.726,0.515,2.595,1.287c0.035,0.168,0.07,0.338,0.106,0.508
		c0.132,0.218,0.325,0.471,0.483,0.697c0.724,1.04,1.375,1.143,1.604,2.595c0.056-0.017,0.109-0.038,0.161-0.054
		c0.193,1.633,0.622,3.521,1.926,3.749c-0.083,0.029-0.197,0.022-0.295,0.054c0,0.027,0,0.054,0,0.079
		c0.081,0.054,0.056,0.069,0.164,0.11c0-0.046,0-0.091,0-0.135c0.008,0,0.019,0,0.024,0c0.029,0.091,0.106,0.094,0.027,0.135
		c0,0.027,0,0.052,0,0.079c0.446-0.098,0.894-0.197,1.34-0.294c0.893-0.089,1.786-0.179,2.679-0.268
		c1.104-0.257,1.999-0.739,2.941-1.125c0.668-0.274,1.585-0.404,2.087-0.857c0.305-0.599,0.607-1.195,0.908-1.792
		c1.042-1.849,1.76-4.107,2.356-6.344c0.274-1.019-0.962-1.243-1.364-1.716c-0.343-0.404-0.282-0.757-0.4-1.442
		c-0.073-0.404-0.334-0.977-0.212-1.421c0.081-0.303,1.1-1.093,1.415-1.232c0.047,0.029,0.091,0.054,0.135,0.081
		c0,0.135,0,0.268,0,0.4c0.214,0.261,0.462,0.326,0.537,0.751c0.585,0.002,0.764,0.191,1.205,0.27c0,0.185,0,0.374,0,0.563
		c-0.143,0.091-0.236,0.104-0.456,0.077c-0.011,0.029-0.021,0.056-0.027,0.083c-0.29,0.492,1.059,2.381,0.778,3.211
		c-0.519,1.521-0.658,3.371-1.046,5.033c-0.27,1.145-0.633,2.261-0.962,3.319c-0.098,0.554-0.199,1.108-0.295,1.658
		c-0.1,0.205-1.415,0.817-1.688,0.994c-1.683,1.083-3.554,1.948-5.513,2.755c-0.75,0.307-1.881,0.411-2.305,1.043
		c-0.111,0.172-0.57,1.487-0.506,1.74c0.142,0.581,0.537,1.234,0.725,1.847c0.182,0.607,0.054,1.369,0.188,2.141
		c0.024,0.342,0.052,0.681,0.079,1.019c-0.053,0.398-0.023,1.133,0.049,1.605c0.029,0.577,0.055,1.16,0.081,1.743
		c0.212,1.209,0.446,2.753,0.376,4.147c-0.05,0.95,0.013,2.085-0.185,3.079c-0.092,0.562-0.183,1.122-0.272,1.687
		c0.254,2.016,0.5,4.031,0.749,6.047c0.239,1.374,0.14,3.017,0.457,4.228c-0.063,0.045-0.123,0.089-0.187,0.137
		c0.008,0.241,0.082,0.243,0.187,0.374c0,0.029,0,0.054,0,0.079c-0.216,0.094-0.341,0.195-0.666,0.189
		c0.176,0.322,0.354,0.643,0.533,0.965c0.535,0.915,1.091,2.521,0.508,3.852c-0.187,0.434-0.211,0.865-0.562,1.126
		c-0.745,0.562-1.635,0.577-2.54,0.987c-0.244,0.168,0.16,1.849,0.021,2.332c-0.193,0.448-0.389,0.892-0.585,1.336
		c-0.312,1.039-0.402,2.06-0.78,3.054c-0.963,2.554-2.342,5.203-3.611,7.037c-0.063,0.199-0.125,0.394-0.185,0.591
		c-0.064-0.122-0.164,0.135-0.164,0.135c0,0.296-0.849,1.609-1.096,1.927c0.525,0.412-0.321,1.336-0.135,1.977
		c0.195,0.678,0.958,0.863,0.963,1.797c0.317,0.137,0.229,0.427,0.458,0.614c0.334,0.286,0.753,0.543,1.122,0.775
		c0,0.1,0,0.056-0.024,0.16c0,0.01,0,0.021,0,0.028c0.07-0.026,0.026,0.027,0.079-0.052c0.054-0.01,0.105-0.021,0.157-0.028
		c0.044,0.08,0.203,0.148,0.349,0.161c0.282,0.531,0.441,1.052,0.188,1.687c-0.454,1.127-1.676,0.662-2.809,0.291
		c-0.917-0.295-1.593-1.055-1.873-2.007c-0.195,0.1-1.079,0.581-1.288,0.536c-0.268-0.116-0.533-0.232-0.803-0.345
		c-0.044-0.662-0.088-1.321-0.133-1.981c-0.086-0.34-0.177-0.683-0.271-1.023c0.011-0.004,0.021-0.015,0.029-0.021
		c0.059-0.104,0.096-0.121,0.241-0.135c0.06-0.31,0-0.587,0.133-0.911c0.196-0.465,0.485-0.88,0.589-1.392
		c-0.106-0.017-0.21-0.035-0.319-0.055c-0.035-0.124-0.073-0.248-0.108-0.373c0.013-0.116-0.002-0.107,0.052-0.162
		c0.295-0.229,0.865-0.116,1.153-0.348c0.208-0.5,0.409-0.998,0.614-1.498c0.319-0.78,0.635-1.687,0.886-2.517
		c0.179-0.786,0.354-1.57,0.533-2.354c0.409-1.299,0.967-2.516,1.502-3.722c0.238-0.554,0.479-1.104,0.722-1.66
		c-0.021-0.454-0.037-0.911-0.056-1.365c0.019-0.815,0.035-1.625,0.056-2.436c-0.975-0.01-1.945-0.017-2.916-0.027
		c-1.649-0.324-4.853-0.286-6.052,0.349c-0.222,0.249-0.443,0.5-0.67,0.749c-0.168,0-0.34,0-0.508,0
		c-0.204,0.118-0.409,0.232-0.616,0.349c-0.409,0.303-0.62,0.886-0.936,1.284c-0.27,0.344-0.841,0.465-1.127,0.803
		c-0.288,0.347-0.226,0.838-0.801,0.962c0,0.212,0.035,0.291,0.079,0.43c-0.224,0.28-0.448,0.589-0.535,1.019
		c0.019,0.126,0.035,0.249,0.056,0.371c-0.064,0.141-0.471,0.61-0.616,0.67c-0.645,0.278-1.172-0.367-1.364-0.693
		c-0.623-1.04-1.175-2.853-0.727-4.448c0.376-1.317,1.458-1.757,2.035-2.807c-0.193-0.137-0.393-0.27-0.587-0.405
		c-0.222-0.579,0.019-1.386,0.349-1.792c0.562-0.122,1.122-0.249,1.682-0.373c0.446-0.195,0.981-0.598,1.691-0.481
		c0.392,0.133,0.779,0.266,1.178,0.4c0.334,0.045,0.871-0.39,1.23-0.135c0,0.01,0,0.017,0,0.027
		c-0.224,0.037-0.446,0.073-0.668,0.108c0,0.008,0,0.017,0,0.027c0.775,0.513,2.126,0.317,3.105,0.054
		c0.856-0.17,1.711-0.338,2.566-0.511c1.133-0.317,2.242-0.649,3.587-0.803c-0.169-0.794-0.339-1.589-0.507-2.381
		c-0.517-0.51-1.037-1.017-1.554-1.525c-0.323-0.425-0.784-1.203-1.311-1.394c-0.382-0.135-0.749,0.193-1.071,0.216
		c-0.019-0.01-0.032-0.017-0.056-0.027c-0.046-0.129,0.037-0.123,0.056-0.322c-0.062-0.083-0.087-0.072-0.109-0.213
		c-0.649-0.027-1.266-0.338-1.898-0.508c-0.039-0.118-0.01-0.063,0.027-0.218c-0.027-0.042-0.057-0.087-0.079-0.131
		c-0.188,0.019-0.378,0.035-0.564,0.054c-0.122-0.029-0.275-0.121-0.483-0.133C302.68,69.758,302.736,69.59,302.788,69.42z
		 M305.329,31.333c-0.006,0-0.017,0-0.022,0c-0.017-0.021-0.039-0.038-0.056-0.054c0-0.01,0-0.017,0-0.027c0.017,0,0.039,0,0.056,0
		C305.312,31.279,305.323,31.306,305.329,31.333z M305.495,31.466c-0.021,0.008-0.039,0.019-0.056,0.024
		c-0.04-0.074-0.054-0.105-0.054-0.157C305.422,31.376,305.456,31.422,305.495,31.466z M305.225,31.466
		c0.017-0.027,0.035-0.052,0.052-0.081C305.242,31.466,305.277,31.416,305.225,31.466z M307.445,31.466c0.019,0,0.035,0,0.052,0
		C307.48,31.466,307.463,31.466,307.445,31.466z M311.888,35.828c0.011-0.017,0.019-0.035,0.027-0.054
		C311.907,35.793,311.899,35.812,311.888,35.828z M311.916,35.88c0.006-0.017,0.017-0.033,0.026-0.052
		C311.932,35.847,311.921,35.863,311.916,35.88z M312.129,36.363c-0.007,0-0.017,0-0.025,0c0-0.043,0-0.089,0-0.133
		C312.113,36.274,312.123,36.32,312.129,36.363z M312.183,36.496c-0.017-0.035-0.035-0.07-0.054-0.105c0.019,0,0.037,0,0.054,0
		C312.183,36.426,312.183,36.461,312.183,36.496z M301.049,37.944c0.011-0.021,0.017-0.038,0.027-0.054
		C301.066,37.907,301.06,37.923,301.049,37.944z M305.52,98.006c0-0.011,0-0.017,0-0.027c0.037,0,0.068,0,0.104,0
		C305.588,97.99,305.557,97.996,305.52,98.006z M311.139,103.092c0.011-0.019,0.017-0.035,0.027-0.052
		C311.156,103.057,311.15,103.074,311.139,103.092z"/>
	<path fill-rule="evenodd" clip-rule="evenodd" fill="#FFFFFF" d="M224.746,55.233c-0.232-0.206-0.379-0.54-0.674-0.67
		c-0.575-0.209-1.895,1.137-2.722,0.778c-0.529-0.226-1.011-0.932-1.347-1.374c-0.315-0.305-0.631-0.61-0.943-0.915
		c-0.395-0.494-0.784-0.96-1.16-1.483c-0.465-0.575-0.932-1.149-1.4-1.726c-0.317-0.483-0.628-0.969-0.943-1.454
		c-0.251-0.297-0.502-0.591-0.753-0.888c-0.398-0.875-0.343-2.079-0.647-2.964c-0.677-1.975-1.614-3.952-1.566-6.576
		c0.125,0.095,0.172,0.135,0.356,0.083c0.372-0.187,0.631-0.685,0.727-1.131c0.114,0.043,0.232,0.089,0.349,0.133
		c-0.127-0.143-0.271-0.174-0.324-0.404c0.009-0.025,0.017-0.052,0.027-0.079c0.131-0.073,0.26-0.073,0.459-0.027
		c-0.136-0.145-0.269-0.289-0.407-0.432c0.009-0.172,0.135-0.846,0.245-0.892c0,0.029,0,0.056,0,0.081
		c0.066-0.106-0.025-0.353,0.026-0.562c0.317-1.336-0.111-2.052-0.593-3.18c0.155,0.019,0.174,0.047,0.27,0.105
		c-0.052-0.133-0.107-0.271-0.159-0.4c0-0.056,0-0.11,0-0.166c0.052,0.01,0.107,0.021,0.159,0.029
		c-0.066-0.27,0.193-0.425,0.297-0.62c0.079,0.035,0.162,0.072,0.245,0.108c0.462-0.222,0.427-0.299,0.726-0.647
		c0.072-0.087,0.469-0.411,0.564-0.485c0.035,0.021,0.072,0.037,0.109,0.056c0.337-0.813-0.135-1.589-0.242-2.236
		c-0.05-0.299-0.068-0.706-0.054-1.158c0.019,0,0.035,0,0.054,0c0.019,0.043,0.035,0.089,0.054,0.133c0,0.017,0,0.033,0,0.056
		c0.009,0,0.017,0,0.025,0c-0.029-0.216,0.006-0.481-0.053-0.596c-0.12-0.222-0.397-0.303-0.431-0.647
		c-0.063-0.621,0.24-1.087-0.083-1.643c-0.374-0.098-0.548-0.151-0.942-0.081c-0.275-1.132-2.03-0.856-1.967-1.886
		c-0.545-0.317-1.126-0.456-1.807-0.298c-0.438,0.105-0.825-0.056-1.183,0.112c-0.639,0.294-1.502,0.602-1.914,1.13
		c-0.243,0.34-0.483,0.683-0.727,1.023c-0.112,0.137-0.419,0.264-0.46,0.294c-0.096,0.075-0.038,0.181-0.079,0.245
		c-0.092,0.141-0.556,0.438-0.701,0.593c-0.406,0.425-0.743,2.01-1.4,2.099c0.079,0.052,0.035,0.029,0.16,0.029
		c-0.096,0.336-0.557,0.496-0.729,0.778c-0.199,0.338-0.017,0.469-0.297,0.809c-0.006,0.01-0.017,0.021-0.024,0.027
		c-0.009,0-0.017,0-0.029,0c-0.006,0.01-0.017,0.021-0.025,0.029c-0.008,0.008-0.019,0.016-0.024,0.027
		c-0.019-0.027-0.037-0.056-0.056-0.083c0.089-0.241,0.199-0.328,0.323-0.508c-0.332,0.106-0.253,0.436-0.432,0.591
		c-0.12,0.105-0.491,0.097-0.596,0.216c-0.22,0.255-0.493,0.527-0.941,0.647c0.004,0.16-0.064,0.311-0.295,0.27
		c0.04,0.048,0.003,0.015,0.055,0.052c-0.042,0.11-0.038,0.075-0.108,0.137c-0.406-0.241-0.771-0.558-1.238-0.755
		c-1.432-0.606-3.028-0.845-4.288-1.591c-0.925-0.602-1.849-1.205-2.773-1.807c-0.771-0.473-1.631-0.782-2.425-1.265
		c-1.013-0.612-2.029-1.274-3.098-1.857c-1.278-0.602-2.554-1.207-3.825-1.807c-0.307-0.181-0.674-0.51-0.973-0.645
		c-0.282-0.129-0.882-0.336-1.185-0.623c-0.073-0.066-0.129-0.193-0.216-0.241c-0.363-0.197-0.678-0.197-0.996-0.456
		c-0.045-0.069-0.016-0.002,0-0.083c-0.236-0.036-0.338-0.166-0.514-0.243c-0.261,0.172-0.768-0.085-0.996-0.16
		c-0.378-0.093-0.755-0.18-1.133-0.273c-0.513-0.222-1.021-0.446-1.535-0.672c-0.336-0.093-2.058,0.699-2.29,0.863
		c-0.11,0.436-0.073,1.722,0.164,2.022c0.187,0.125,0.374,0.251,0.564,0.375c0.081-0.035,0.16-0.068,0.243-0.108
		c0.402,0.195,0.585,0.572,1.05,0.674c0.444,0.095,0.807-0.317,1.16-0.378c0.305,0.081,0.61,0.162,0.917,0.243
		c0.116-0.168,0.303-0.318,0.375-0.513c0.533,0.079,1.241,0.046,1.699,0.27c1.012,0.496,1.929,1.349,2.773,1.753
		c0.284,0.135,0.525,0.446,0.809,0.508c-0.002,0.087,0.031,0.021-0.027,0.083c0.068,0.048,0.077,0.031,0.162,0.056
		c0.405,1.547,2.409,1.823,3.61,2.666c0.398,0.278,0.877,0.664,1.292,0.89c0.145,0.027,0.288,0.052,0.431,0.081
		c0.229,0.187,0.45,0.377,0.674,0.566c0.956,0.672,1.925,1.342,2.886,1.994c1.666,1.133,3.483,2.135,5.065,3.367
		c1.116,0.871,1.05,3.734,1.021,5.578c0.017,0.842,0.038,1.688,0.055,2.533c-0.45,2.181,0.294,4.247,0.487,6.547
		c0.286,3.417,0.192,7.051,0.699,10.159c0.244,1.504,0.33,3.273,0.323,4.794c-0.002,0.948,0.131,2.218-0.214,2.886
		c0.025,0.166,0.096,0.205,0.188,0.294c-0.02,0.121-0.009,0.104-0.081,0.164c-0.005,0.247,0.056,0.276,0.216,0.351
		c0.105-0.027,0.161-0.029,0.271-0.083c0.212,0.199,0.135,1.74,0.212,2.155c0.232,1.199,0.17,2.514,0.379,3.773
		c0.009,0.842,0.019,1.688,0.029,2.531c0.139,0.581,0.125,0.967,0.321,1.62c0.063,0.096,0.125,0.195,0.189,0.295
		c0.141,0.552,0.118,1.29,0.349,1.805c0.082,0.183,0.309,0.398,0.377,0.591c0,0.073,0,0.147,0,0.218
		c0.923,1.593,1.958,3.132,2.965,4.688c0.315,0.456,0.63,0.915,0.943,1.375c0.106,0.324-0.022,0.701,0.054,1.048
		c0.05,0.234,0.256,0.475,0.162,0.863c-0.232,0.957-1.052,2.512-1.566,3.261c-0.163,0.243-0.282,0.458-0.456,0.755
		c-0.094,0.156-0.415,0.164-0.485,0.432c-0.19,0.722-0.635,1.379-0.027,2.047c0.361,0.396,1.338,0.396,1.917,0.216
		c0.561-0.178,1.129-0.218,1.481-0.593c1.015-1.077,0.564-2.975,1.398-4.07c0.209,0.124,0.497,0.319,0.755,0.351
		c0.38-0.251,0.853-0.644,0.755-1.292c0.035,0.01,0.072,0.017,0.108,0.027c0.12,0.091-0.112,1.367-0.189,1.618
		c-0.116,0.367-0.234,0.734-0.351,1.104c0.066,0.208-0.105,0.919-0.214,1.16c-0.066,0.135-0.22,0.183-0.296,0.294
		c-0.185,0.264-0.627,1.338-0.623,1.643c1.544,0,3.092,0,4.635,0c0.029-0.16,0.058-0.324,0.081-0.485
		c0.085-0.013,0.541-0.805,0.596-1.048c0.065-0.323-0.106-0.687-0.027-1.079c0.017-0.224,0.035-0.45,0.054-0.674
		c0.096-0.257,0.286-0.581,0.323-0.834c0.146-1.006-0.63-1.8-0.836-2.535c-0.072-0.253,0.133-0.585,0.133-0.996
		c-0.157-0.11-0.443-0.425-0.755-0.514c-0.563-2.622,0.048-6.024-0.51-8.565c-0.189-0.863-0.361-1.724-0.675-2.481
		c-0.342-0.699-0.681-1.402-1.022-2.101c-0.175-0.579,0.056-2.139,0.188-2.639c0.635-2.4,1.695-4.703,2.587-6.979
		c0.106-0.28,0.411-0.307,0.54-0.701c0.271-0.1,0.528,0.004,0.833,0.027c0.04-0.121-0.109-0.338-0.188-0.513
		c0.432-0.467,1.79-0.879,2.454-1.104c-0.029-0.203-0.118-0.291-0.19-0.458c0.128-0.155,0.257-0.191,0.323-0.351
		c-0.566-0.645-0.635-1.95-0.919-2.858c-0.458-1.483-0.842-2.987-1.371-4.498c-0.278-0.639-0.556-1.276-0.834-1.913
		c0.888,0.666,1.508,1.828,2.234,2.666c0.975,1.125,2.151,2.112,3.231,3.126c0.43,0.398,0.851,1.205,1.402,1.427
		c0.463,0.188,0.774-0.208,1.212-0.106c0.019,0.002,1.135,0.16,1.135,0.16c0,0.058,0,0.108,0,0.164
		c0.094,0.185,0.278,0.11,0.485,0.081c0.015,0.162,0.044,0.172,0.107,0.27c0.42-0.056,0.704-0.216,0.863-0.542
		c0.27,0.123,0.487,0.261,0.834,0.324c0.162-0.006,0.319-0.019,0.485-0.027c0.162,0.061,0.193,0.33,0.485,0.216
		c0.025-0.008,0.05-0.017,0.079-0.027C226.382,56.884,225.611,56.009,224.746,55.233z M210.167,86.194
		c-0.07,0.374-0.312,0.662-0.349,1.104c-0.017,0.008-0.037,0.019-0.054,0.029c-0.253-0.513,0.192-1.068,0-1.593
		c-0.087-0.236-0.351-0.23-0.485-0.402c-0.063-0.179-0.127-0.361-0.189-0.54c-0.145-0.241-0.4-0.423-0.485-0.726
		c0.133,0.006,0.102,0.004,0.216-0.027c0.083-0.253,0.149-0.382,0.189-0.647c0-0.008,0-0.017,0-0.027
		c-0.376-0.123-0.764-0.116-1.214-0.106c-0.31-0.705-0.655-1.479-0.886-2.319c-0.249-0.898-0.238-1.761-0.542-2.535
		c-0.412-0.898-0.827-1.794-1.24-2.693c0.021-0.288,0.039-0.574,0.054-0.863c-0.033-0.99,0.002-2.039,0.164-3.016
		c0.054-1.087,0.11-2.174,0.162-3.261c0.22-1.311,0.554-2.481,0.728-3.72c0.189-0.022,0.376-0.052,0.564-0.079
		c0.011,0,0.017,0,0.027,0c0.064,0.351-0.423,1.57-0.564,2.045c-0.264,0.882-0.286,1.917-0.458,2.966
		c0.008,0.527,0.019,1.058,0.026,1.587c-0.066,0.375-0.151,1.068-0.052,1.458c0.193,0.33,0.393,0.664,0.589,0.998
		c0.317,0.811,0.533,1.464,0.917,2.153c0.498,0.894,0.55,2.058,0.917,3.07c0.402,1.224,0.808,2.446,1.212,3.668
		c0.139,0.371,0.529,1.021,0.456,1.425C210.071,84.618,210.297,85.526,210.167,86.194z"/>
</g>
</svg>
