<?xml version="1.0" encoding="UTF-8" standalone="no"?>
<svg
   xmlns:dc="http://purl.org/dc/elements/1.1/"
   xmlns:cc="http://creativecommons.org/ns#"
   xmlns:rdf="http://www.w3.org/1999/02/22-rdf-syntax-ns#"
   xmlns:svg="http://www.w3.org/2000/svg"
   xmlns="http://www.w3.org/2000/svg"
   xmlns:xlink="http://www.w3.org/1999/xlink"
   id="svg7"
   xml:space="preserve"
   viewBox="0 0 1024 768"
   y="0px"
   x="0px"
   version="1.1"><metadata
     id="metadata13"><rdf:RDF><cc:Work
         rdf:about=""><dc:format>image/svg+xml</dc:format><dc:type
           rdf:resource="http://purl.org/dc/dcmitype/StillImage" /></cc:Work></rdf:RDF></metadata><defs
     id="defs11" /><g
     id="g3"
     transform="matrix(1.5,0,0,1.2,512,384)"><path
       style="fill:#000f16"
       d="m 152.4,-201.9 c 46.6,26 86.9,68.5 97.2,116.9 10.4,48.3 -9.3,102.5 -32.2,150.3 -22.9,47.8 -49,89.1 -85.8,121.8 -36.8,32.8 -84.2,56.8 -135.5,62.2 -51.4,5.4 -106.6,-7.9 -148.6,-38.9 -42,-31 -70.8,-79.8 -87.5,-132.2 -16.8,-52.4 -21.5,-108.6 -2.2,-153.4 19.4,-44.8 62.9,-78.2 107.3,-105 44.4,-26.7 89.6,-46.8 138.7,-52 49.1,-5.3 102,4.2 148.6,30.3 z"
       id="path" /></g><animate
     fill="freeze"
     values="M120.2,-176.8C149.6,-144.2,162.8,-100.7,175.5,-57.9C188.3,-15,200.7,27.1,195.6,70.1C190.6,113,168.2,156.8,132.7,178C97.2,199.1,48.6,197.5,4.9,190.8C-38.8,184.1,-77.6,172.1,-115.3,151.7C-153,131.3,-189.7,102.4,-205.6,64.2C-221.6,26.1,-216.8,-21.4,-204,-67.9C-191.2,-114.4,-170.2,-160,-134.9,-190.6C-99.5,-221.3,-49.8,-237.2,-2.2,-234.2C45.5,-231.2,90.9,-209.5,120.2,-176.8Z; M152.4,-201.9C199,-175.9,239.3,-133.4,249.6,-85C260,-36.7,240.3,17.5,217.4,65.3C194.5,113.1,168.4,154.4,131.6,187.1C94.8,219.9,47.4,243.9,-3.9,249.3C-55.3,254.7,-110.5,241.4,-152.5,210.4C-194.5,179.4,-223.3,130.6,-240,78.2C-256.8,25.8,-261.5,-30.4,-242.2,-75.2C-222.8,-120,-179.3,-153.4,-134.9,-180.2C-90.5,-206.9,-45.3,-227,3.8,-232.2C52.9,-237.5,105.8,-228,152.4,-201.9Z; M101.9,-120.6C144.2,-109.5,199.1,-96,223.6,-62.7C248.2,-29.4,242.5,23.8,220.4,65.3C198.2,106.8,159.7,136.8,120.2,173.1C80.7,209.4,40.4,252.2,-4.7,258.7C-49.8,265.2,-99.5,235.3,-119,192.5C-138.5,149.7,-127.8,93.8,-144.4,46.1C-161,-1.6,-205.1,-41.3,-214.9,-88C-224.7,-134.6,-200.2,-188.3,-158.7,-199.6C-117.2,-210.9,-58.6,-180,-14.4,-160.1C29.8,-140.3,59.6,-131.6,101.9,-120.6Z; M113.1,-161.5C148.6,-129.9,180.8,-99.5,181.6,-66.3C182.3,-33.1,151.5,3.1,132.4,37.1C113.2,71.2,105.7,103.2,85.6,142.9C65.4,182.7,32.7,230.4,-3.9,235.8C-40.6,241.2,-81.1,204.3,-114.7,168.9C-148.3,133.5,-175,99.5,-198.1,57.5C-221.3,15.5,-240.9,-34.6,-221,-64.4C-201.2,-94.2,-141.7,-103.7,-98.3,-132.8C-54.9,-161.8,-27.4,-210.4,5.7,-218.2C38.8,-226.1,77.6,-193.1,113.1,-161.5Z; M102,-143.7C138.9,-113.5,180.3,-92.8,196.8,-59.7C213.4,-26.7,205.1,18.6,190.6,61.5C176.1,104.4,155.4,144.8,122.5,162.7C89.7,180.5,44.9,175.8,-1.2,177.4C-47.2,179,-94.4,187,-113.8,164.8C-133.1,142.5,-124.6,90.1,-143.6,43.8C-162.6,-2.6,-209.2,-42.9,-216.4,-85.7C-223.7,-128.5,-191.5,-173.9,-148.8,-202.2C-106.2,-230.5,-53.1,-241.7,-10.3,-227.6C32.5,-213.4,65,-173.9,102,-143.7Z; M120.2,-176.8C149.6,-144.2,162.8,-100.7,175.5,-57.9C188.3,-15,200.7,27.1,195.6,70.1C190.6,113,168.2,156.8,132.7,178C97.2,199.1,48.6,197.5,4.9,190.8C-38.8,184.1,-77.6,172.1,-115.3,151.7C-153,131.3,-189.7,102.4,-205.6,64.2C-221.6,26.1,-216.8,-21.4,-204,-67.9C-191.2,-114.4,-170.2,-160,-134.9,-190.6C-99.5,-221.3,-49.8,-237.2,-2.2,-234.2C45.5,-231.2,90.9,-209.5,120.2,-176.8Z"
     keySplines="0.9 0.1 0.1 0.9;0.9 0.1 0.1 0.9;0.9 0.1 0.1 0.9;0.9 0.1 0.1 0.9;0.9 0.1 0.1 0.9"
     calcMode="spline"
     keyTimes="0; 0.2; 0.4; 0.6; 0.8; 1"
     attributeName="d"
     repeatCount="indefinite"
     dur="20s"
     attributeType="XML"
     xlink:href="#path" /><path
     id="path5"
     transform="translate(153.6 115.2) scale(0.7)"
     fill="#f2f2f2"
     d="m759.58 340.23c-8.8977 0-16.953 1.9249-24.047 5.6524-7.0942 3.8477-12.625 9.0177-16.713 15.631-4.0882 6.7334-6.0137 14.188-6.0137 22.484 0 8.4168 1.9255 15.871 6.0137 22.484 4.0882 6.7334 9.6187 11.903 16.713 15.631 7.0942 3.8477 15.149 5.6524 24.047 5.6524 8.8978 0 16.834-1.8047 23.928-5.6524 7.0942-3.7274 12.627-8.8974 16.715-15.631 4.0882-6.6132 6.1309-14.068 6.1309-22.484 0-8.2966-2.0427-15.751-6.1309-22.484-4.0882-6.6132-9.6207-11.783-16.715-15.631-7.0942-3.7274-15.03-5.6524-23.928-5.6524zm-541.93 1.6836v18.998h38.836c7.2144 0 12.986 2.0446 17.314 6.1328 4.3286 4.2084 6.6133 9.859 6.6133 16.953 0 7.2144-2.2846 12.865-6.6133 16.953-4.3286 4.0882-10.1 6.1328-17.314 6.1328h-15.029v-22.36h-23.807v41.363h39.799c9.1382 0 17.315-1.683 24.529-5.1699 7.0942-3.3667 12.624-8.2972 16.592-14.67 3.8477-6.2525 5.8926-13.707 5.8926-22.244 0-8.4168-2.0449-15.871-5.8926-22.244-3.9679-6.2525-9.4976-11.183-16.592-14.67-7.2144-3.3667-15.391-5.1699-24.529-5.1699zm96.684 0 32.104 53.627v30.541h23.809v-30.18l32.225-53.988h-23.086l-19.961 33.426-19.959-33.426zm105.41 0v11.182l23.326 28.137 37.154 44.85h19.6v-9.7402l-23.328-29.699v0.12109l-37.152-44.85zm56.752 0v15.27l23.328 28.137v-43.406zm43.992 0v18.877h25.852v65.291h23.809v-65.291h25.73v-18.877zm95.949 0v18.758h37.035c4.8096 0 8.5375 1.0818 11.062 3.2461 2.4048 2.1643 3.7266 5.291 3.7266 9.1387 0 3.9679-1.3218 6.9744-3.7266 9.1387-2.525 2.1643-6.2529 3.125-11.062 3.125h-37.02v40.762h23.809v-22.365h12.986l15.27 22.365h25.492l-18.156-26.453c5.1703-2.525 9.2568-6.011 12.143-10.58 2.8858-4.5691 4.3301-9.86 4.3301-15.992 0-6.2525-1.5643-11.783-4.5703-16.473-3.1262-4.6894-7.4553-8.2972-12.986-10.822-5.6513-2.525-12.263-3.8476-19.838-3.8476zm143.14 18.035c4.2084 0 8.056 1.082 11.543 3.0059 3.3667 2.0441 6.1337 4.9299 8.1777 8.5371 1.9238 3.6072 3.0059 7.8165 3.0059 12.506 0 4.8096-1.082 9.0178-3.0059 12.625-2.0441 3.6072-4.811 6.4941-8.1777 8.418-3.487 2.0441-7.3346 3.0059-11.543 3.0059-4.3286 0-8.1762-0.96178-11.543-3.0059-3.487-1.9238-6.252-4.8108-8.1758-8.418-2.0441-3.6072-3.0059-7.8154-3.0059-12.625 0-4.6894 0.96177-8.8987 3.0059-12.506 1.9238-3.6072 4.6888-6.493 8.1758-8.5371 3.3667-1.9238 7.2143-3.0059 11.543-3.0059zm-339.83 22.246v43.887h23.326v-14.188z" /></svg>