<?xml version="1.0" encoding="UTF-8" standalone="no" ?>
<!DOCTYPE svg PUBLIC "-//W3C//DTD SVG 1.1//EN" "http://www.w3.org/Graphics/SVG/1.1/DTD/svg11.dtd">
<svg xmlns="http://www.w3.org/2000/svg" xmlns:xlink="http://www.w3.org/1999/xlink" version="1.1" width="1024" height="768" viewBox="0 0 1024 768" xml:space="preserve">
<desc>Created with Fabric.js 5.3.0</desc>
<defs>
</defs>
<g transform="matrix(1 0 0 1 512.5 384.5)" id="backgroundElement"  >
<rect style="stroke: none; stroke-width: 1; stroke-dasharray: none; stroke-linecap: butt; stroke-dashoffset: 0; stroke-linejoin: miter; stroke-miterlimit: 4; fill: rgb(255,255,255); fill-opacity: 0; fill-rule: nonzero; opacity: 1;"  x="-512" y="-384" rx="0" ry="0" width="1024" height="768" />
</g>
<g transform="matrix(1 0 0 1 512 384)"  >
<path style="stroke: none; stroke-width: 1; stroke-dasharray: none; stroke-linecap: butt; stroke-dashoffset: 0; stroke-linejoin: miter; stroke-miterlimit: 4; fill: rgb(255,255,255); fill-rule: nonzero; opacity: 1;"  transform=" translate(-512, -384)" d="M 759.58 340.23 C 750.6823 340.23 742.6270000000001 342.1549 735.533 345.8824 C 728.4388 349.7301 722.908 354.9001 718.82 361.51340000000005 C 714.7318 368.24680000000006 712.8063000000001 375.70140000000004 712.8063000000001 383.9974 C 712.8063000000001 392.41420000000005 714.7318000000001 399.8684 718.82 406.4814 C 722.9082000000001 413.2148 728.4387 418.3844 735.533 422.1124 C 742.6272 425.96009999999995 750.682 427.7648 759.58 427.7648 C 768.4778 427.7648 776.414 425.96009999999995 783.508 422.1124 C 790.6022 418.385 796.135 413.215 800.2230000000001 406.4814 C 804.3112000000001 399.8682 806.3539000000001 392.4134 806.3539000000001 383.9974 C 806.3539000000001 375.7008 804.3112000000001 368.24640000000005 800.2230000000001 361.51340000000005 C 796.1348 354.90020000000004 790.6023 349.73040000000003 783.508 345.8824000000001 C 776.4138 342.1550000000001 768.4780000000001 340.2300000000001 759.58 340.2300000000001 z M 217.6500000000001 341.91360000000003 L 217.6500000000001 360.9116 L 256.4860000000001 360.9116 C 263.7004000000001 360.9116 269.4720000000001 362.9562 273.8000000000001 367.0444 C 278.1286000000001 371.2528 280.4133000000001 376.9034 280.4133000000001 383.99739999999997 C 280.4133000000001 391.2118 278.1287000000001 396.8624 273.8000000000001 400.95039999999995 C 269.47140000000013 405.0385999999999 263.7000000000001 407.0831999999999 256.4860000000001 407.0831999999999 L 241.4570000000001 407.0831999999999 L 241.4570000000001 384.7231999999999 L 217.65000000000012 384.7231999999999 L 217.65000000000012 426.0861999999999 L 257.4490000000001 426.0861999999999 C 266.5872000000001 426.0861999999999 274.7640000000001 424.4031999999999 281.9780000000001 420.9162999999999 C 289.0722000000001 417.54959999999994 294.60200000000015 412.61909999999995 298.5700000000001 406.2462999999999 C 302.4177000000001 399.9937999999999 304.4626000000001 392.5392999999999 304.4626000000001 384.0022999999999 C 304.4626000000001 375.58549999999985 302.41770000000014 368.1312999999999 298.5700000000001 361.75829999999985 C 294.6021000000001 355.50579999999985 289.07240000000013 350.57529999999986 281.9780000000001 347.08829999999983 C 274.7636000000001 343.72159999999985 266.5870000000001 341.91839999999985 257.4490000000001 341.91839999999985 z M 314.33400000000006 341.91360000000003 L 346.43800000000005 395.54060000000004 L 346.43800000000005 426.08160000000004 L 370.24700000000007 426.08160000000004 L 370.24700000000007 395.90160000000003 L 402.4720000000001 341.91360000000003 L 379.3860000000001 341.91360000000003 L 359.42500000000007 375.3396 L 339.46600000000007 341.91360000000003 z M 419.744 341.91360000000003 L 419.744 353.09560000000005 L 443.07000000000005 381.23260000000005 L 480.22400000000005 426.08260000000007 L 499.82400000000007 426.08260000000007 L 499.82400000000007 416.34240000000005 L 476.4960000000001 386.64340000000004 L 476.4960000000001 386.76449 L 439.3440000000001 341.91449 z M 476.49600000000004 341.91360000000003 L 476.49600000000004 357.1836 L 499.824 385.3206 L 499.824 341.9146 z M 520.488 341.91360000000003 L 520.488 360.79060000000004 L 546.34 360.79060000000004 L 546.34 426.08160000000004 L 570.149 426.08160000000004 L 570.149 360.79060000000004 L 595.879 360.79060000000004 L 595.879 341.91360000000003 z M 616.437 341.91360000000003 L 616.437 360.6716 L 653.472 360.6716 C 658.2816 360.6716 662.0095 361.7534 664.534 363.9177 C 666.9388 366.08200000000005 668.2606 369.2087 668.2606 373.05640000000005 C 668.2606 377.02430000000004 666.9387999999999 380.03080000000006 664.534 382.1951 C 662.009 384.35940000000005 658.2811 385.3201 653.472 385.3201 L 616.452 385.3201 L 616.452 426.0821 L 640.261 426.0821 L 640.261 403.7171 L 653.247 403.7171 L 668.5169999999999 426.0821 L 694.0089999999999 426.0821 L 675.853 399.62910000000005 C 681.0233 397.1041000000001 685.1098 393.6181 687.996 389.04910000000007 C 690.8818 384.4800000000001 692.3261 379.18910000000005 692.3261 373.05710000000005 C 692.3261 366.80460000000005 690.7618 361.27410000000003 687.7558 356.58410000000003 C 684.6296 351.89470000000006 680.3005 348.28690000000006 674.7698 345.76210000000003 C 669.1185 343.23710000000005 662.5068 341.91450000000003 654.9318000000001 341.91450000000003 z M 759.577 359.94860000000006 C 763.7854 359.94860000000006 767.633 361.03060000000005 771.12 362.95450000000005 C 774.4867 364.99860000000007 777.2537 367.8844 779.2977 371.49160000000006 C 781.2215 375.09880000000004 782.3036 379.3081000000001 782.3036 383.99760000000003 C 782.3036 388.8072 781.2216 393.01540000000006 779.2977 396.62260000000003 C 777.2536 400.2298 774.4866999999999 403.11670000000004 771.12 405.04060000000004 C 767.633 407.08470000000005 763.7854 408.04650000000004 759.577 408.04650000000004 C 755.2484 408.04650000000004 751.4008 407.08472000000006 748.034 405.04060000000004 C 744.547 403.1168 741.782 400.22980000000007 739.8582 396.62260000000003 C 737.8141 393.01540000000006 736.8523 388.8072 736.8523 383.99760000000003 C 736.8523 379.30820000000006 737.81407 375.0989 739.8582 371.49160000000006 C 741.782 367.8844000000001 744.547 364.99860000000007 748.034 362.95450000000005 C 751.4007 361.0307 755.2483 359.94860000000006 759.577 359.94860000000006 z M 419.747 382.19460000000004 L 419.747 426.08160000000004 L 443.07300000000004 426.08160000000004 L 443.07300000000004 411.89360000000005 z" stroke-linecap="round" />
</g>
</svg>