<?xml version="1.0" encoding="UTF-8" standalone="no"?>
<svg
   xmlns:dc="http://purl.org/dc/elements/1.1/"
   xmlns:cc="http://creativecommons.org/ns#"
   xmlns:rdf="http://www.w3.org/1999/02/22-rdf-syntax-ns#"
   xmlns:svg="http://www.w3.org/2000/svg"
   xmlns="http://www.w3.org/2000/svg"
   id="svg9"
   xml:space="preserve"
   viewBox="0 0 1024 768"
   y="0px"
   x="0px"
   version="1.1"><metadata
     id="metadata15"><rdf:RDF><cc:Work
         rdf:about=""><dc:format>image/svg+xml</dc:format><dc:type
           rdf:resource="http://purl.org/dc/dcmitype/StillImage" /></cc:Work></rdf:RDF></metadata><defs
     id="defs13" /><g
     style="fill:#000f16;stroke-width:0;stroke-miterlimit:2"
     stroke-miterlimit="2"
     id="logo-group"><path
       d="m 298.57,361.76 c -3.9679,-6.2525 -9.499,-11.182 -16.593,-14.669 -7.2144,-3.3667 -15.391,-5.1703 -24.529,-5.1703 h -39.799 v 18.998 h 38.838 c 7.2144,0 12.986,2.0441 17.315,6.1322 4.3286,4.2084 6.6132,9.8597 6.6132,16.954 0,7.2144 -2.2846,12.866 -6.6132,16.954 -4.3286,4.0882 -10.1,6.1322 -17.315,6.1322 h -15.03 v -22.37 h -23.81 v 41.36 h 39.799 c 9.1382,0 17.315,-1.6834 24.529,-5.1703 7.0942,-3.3667 12.625,-8.2966 16.593,-14.669 3.8477,-6.2525 5.8918,-13.707 5.8918,-22.244 0,-8.4168 -2.0441,-15.872 -5.8918,-22.244 z"
       style="font-variant-ligatures:none"
       id="path366271" /><path
       d="m 370.24,395.9 32.23,-53.98 h -23.09 l -19.96,33.42 -19.96,-33.42 h -25.13 l 32.104,53.627 v 30.53 h 23.808 z"
       style="font-variant-ligatures:none"
       id="path366273" /><path
       d="m 419.74,426.08 h 23.327 V 411.9 l -23.33,-29.7 z m 56.753,-84.168 v 15.27 l 23.327,28.136 v -43.4 z m 0,44.85 -37.15,-44.84 h -19.599 v 11.182 l 23.327,28.136 37.154,44.85 h 19.599 v -9.7394 l -23.327,-29.699 z"
       style="font-variant-ligatures:none"
       id="path366275" /><path
       d="m 546.34,360.79 v 65.29 h 23.808 v -65.29 h 25.731 v -18.87 h -75.39 v 18.878 z"
       style="font-variant-ligatures:none"
       id="path366277" /><path
       d="m 675.84,399.63 c 5.1703,-2.525 9.2585,-6.012 12.144,-10.581 2.8858,-4.5691 4.3286,-9.8597 4.3286,-15.992 0,-6.2525 -1.5631,-11.784 -4.5691,-16.473 -3.1262,-4.6894 -7.4549,-8.2966 -12.986,-10.822 -5.6513,-2.525 -12.264,-3.8477 -19.84,-3.8477 h -38.477 v 18.757 h 37.034 c 4.8096,0 8.537,1.0822 11.062,3.2465 2.4048,2.1643 3.7274,5.2906 3.7274,9.1382 0,3.9679 -1.3226,6.9739 -3.7274,9.1382 -2.525,2.1643 -6.2525,3.1262 -11.062,3.1262 h -37.03 v 40.76 h 23.808 v -22.365 h 12.986 l 15.27,22.365 h 25.491 z"
       style="font-variant-ligatures:none"
       id="path366279" /><path
       d="m 735.53,422.12 c 7.0942,3.8477 15.15,5.6513 24.048,5.6513 8.8978,0 16.834,-1.8036 23.928,-5.6513 7.0942,-3.7274 12.625,-8.8978 16.713,-15.631 4.0882,-6.6132 6.1322,-14.068 6.1322,-22.485 0,-8.2966 -2.0441,-15.751 -6.1322,-22.485 -4.0882,-6.6132 -9.6192,-11.784 -16.713,-15.631 -7.0942,-3.7274 -15.03,-5.6513 -23.928,-5.6513 -8.8978,0 -16.954,1.9238 -24.048,5.6513 -7.0942,3.8477 -12.625,9.018 -16.713,15.631 -4.0882,6.7334 -6.012,14.188 -6.012,22.485 0,8.4168 1.9238,15.872 6.012,22.485 4.0882,6.7334 9.6192,11.904 16.713,15.631 z m 35.59,-17.08 c -3.487,2.0441 -7.3346,3.006 -11.543,3.006 -4.3286,0 -8.1763,-0.96192 -11.543,-3.006 -3.487,-1.9238 -6.2525,-4.8096 -8.1763,-8.4168 -2.0441,-3.6072 -3.006,-7.8156 -3.006,-12.625 0,-4.6894 0.96192,-8.8978 3.006,-12.505 1.9238,-3.6072 4.6894,-6.493 8.1763,-8.537 3.3667,-1.9238 7.2144,-3.006 11.543,-3.006 4.2084,0 8.0561,1.0822 11.543,3.006 3.3667,2.0441 6.1322,4.9298 8.1763,8.537 1.9238,3.6072 3.006,7.8156 3.006,12.505 0,4.8096 -1.0822,9.018 -3.006,12.625 -2.0441,3.6072 -4.8096,6.493 -8.1763,8.4168 z"
       style="font-variant-ligatures:none"
       id="path366281" /></g></svg>