<?xml version="1.0" encoding="UTF-8" standalone="no"?>
<svg
   xmlns:dc="http://purl.org/dc/elements/1.1/"
   xmlns:cc="http://creativecommons.org/ns#"
   xmlns:rdf="http://www.w3.org/1999/02/22-rdf-syntax-ns#"
   xmlns:svg="http://www.w3.org/2000/svg"
   xmlns="http://www.w3.org/2000/svg"
   id="svg4"
   xml:space="preserve"
   viewBox="0 0 1024 768"
   y="0px"
   x="0px"
   version="1.1"><metadata
     id="metadata10"><rdf:RDF><cc:Work
         rdf:about=""><dc:format>image/svg+xml</dc:format><dc:type
           rdf:resource="http://purl.org/dc/dcmitype/StillImage" /></cc:Work></rdf:RDF></metadata><defs
     id="defs8" /><path
     id="path2"
     d="m759.58 340.23c-8.8977 0-16.953 1.9249-24.047 5.6524-7.0942 3.8477-12.625 9.0177-16.713 15.631-4.0882 6.7334-6.0137 14.188-6.0137 22.484 0 8.4168 1.9255 15.871 6.0137 22.484 4.0882 6.7334 9.6187 11.903 16.713 15.631 7.0942 3.8477 15.149 5.6524 24.047 5.6524 8.8978 0 16.834-1.8047 23.928-5.6524 7.0942-3.7274 12.627-8.8974 16.715-15.631 4.0882-6.6132 6.1309-14.068 6.1309-22.484 0-8.2966-2.0427-15.751-6.1309-22.484-4.0882-6.6132-9.6207-11.783-16.715-15.631-7.0942-3.7274-15.03-5.6524-23.928-5.6524zm-541.93 1.6836v18.998h38.836c7.2144 0 12.986 2.0446 17.314 6.1328 4.3286 4.2084 6.6133 9.859 6.6133 16.953 0 7.2144-2.2846 12.865-6.6133 16.953-4.3286 4.0882-10.1 6.1328-17.314 6.1328h-15.029v-22.36h-23.807v41.363h39.799c9.1382 0 17.315-1.683 24.529-5.1699 7.0942-3.3667 12.624-8.2972 16.592-14.67 3.8477-6.2525 5.8926-13.707 5.8926-22.244 0-8.4168-2.0449-15.871-5.8926-22.244-3.9679-6.2525-9.4976-11.183-16.592-14.67-7.2144-3.3667-15.391-5.1699-24.529-5.1699zm96.684 0 32.104 53.627v30.541h23.809v-30.18l32.225-53.988h-23.086l-19.961 33.426-19.959-33.426zm105.41 0v11.182l23.326 28.137 37.154 44.85h19.6v-9.7402l-23.328-29.699v0.12109l-37.152-44.85zm56.752 0v15.27l23.328 28.137v-43.406zm43.992 0v18.877h25.852v65.291h23.809v-65.291h25.73v-18.877zm95.949 0v18.758h37.035c4.8096 0 8.5375 1.0818 11.062 3.2461 2.4048 2.1643 3.7266 5.291 3.7266 9.1387 0 3.9679-1.3218 6.9744-3.7266 9.1387-2.525 2.1643-6.2529 3.125-11.062 3.125h-37.02v40.762h23.809v-22.365h12.986l15.27 22.365h25.492l-18.156-26.453c5.1703-2.525 9.2568-6.011 12.143-10.58 2.8858-4.5691 4.3301-9.86 4.3301-15.992 0-6.2525-1.5643-11.783-4.5703-16.473-3.1262-4.6894-7.4553-8.2972-12.986-10.822-5.6513-2.525-12.263-3.8476-19.838-3.8476zm143.14 18.035c4.2084 0 8.056 1.082 11.543 3.0059 3.3667 2.0441 6.1337 4.9299 8.1777 8.5371 1.9238 3.6072 3.0059 7.8165 3.0059 12.506 0 4.8096-1.082 9.0178-3.0059 12.625-2.0441 3.6072-4.811 6.4941-8.1777 8.418-3.487 2.0441-7.3346 3.0059-11.543 3.0059-4.3286 0-8.1762-0.96178-11.543-3.0059-3.487-1.9238-6.252-4.8108-8.1758-8.418-2.0441-3.6072-3.0059-7.8154-3.0059-12.625 0-4.6894 0.96177-8.8987 3.0059-12.506 1.9238-3.6072 4.6888-6.493 8.1758-8.5371 3.3667-1.9238 7.2143-3.0059 11.543-3.0059zm-339.83 22.246v43.887h23.326v-14.188z"
     fill="#000f16" /></svg>